<svg xmlns="http://www.w3.org/2000/svg" xmlns:xlink="http://www.w3.org/1999/xlink" contentStyleType="text/css" height="509px" preserveAspectRatio="none" style="width:1935px;height:509px;background:#FFFFFF;" version="1.1" viewBox="0 0 1935 509" width="1935px" zoomAndPan="magnify"><defs/><g><!--cluster api--><g id="cluster_api"><path d="M667.5,6 L733.0859,6 A3.75,3.75 0 0 1 735.5859,8.5 L742.5859,29.6094 L1274.5,29.6094 A2.5,2.5 0 0 1 1277,32.1094 L1277,235.5 A2.5,2.5 0 0 1 1274.5,238 L667.5,238 A2.5,2.5 0 0 1 665,235.5 L665,8.5 A2.5,2.5 0 0 1 667.5,6 " fill="none" style="stroke:#000000;stroke-width:1.5;"/><line style="stroke:#000000;stroke-width:1.5;" x1="665" x2="742.5859" y1="29.6094" y2="29.6094"/><text fill="#000000" font-family="sans-serif" font-size="14" font-weight="bold" lengthAdjust="spacing" textLength="64.5859" x="669" y="22.5332">API Layer</text></g><!--cluster app--><g id="cluster_app"><path d="M8.5,122 L126.9688,122 A3.75,3.75 0 0 1 129.4688,124.5 L136.4688,145.6094 L622.5,145.6094 A2.5,2.5 0 0 1 625,148.1094 L625,391.5 A2.5,2.5 0 0 1 622.5,394 L8.5,394 A2.5,2.5 0 0 1 6,391.5 L6,124.5 A2.5,2.5 0 0 1 8.5,122 " fill="none" style="stroke:#000000;stroke-width:1.5;"/><line style="stroke:#000000;stroke-width:1.5;" x1="6" x2="136.4688" y1="145.6094" y2="145.6094"/><text fill="#000000" font-family="sans-serif" font-size="14" font-weight="bold" lengthAdjust="spacing" textLength="117.4688" x="10" y="138.5332">Application Layer</text></g><!--cluster domain--><g id="cluster_domain"><path d="M780.5,278 L874.0859,278 A3.75,3.75 0 0 1 876.5859,280.5 L883.5859,301.6094 L1274.5,301.6094 A2.5,2.5 0 0 1 1277,304.1094 L1277,499.5 A2.5,2.5 0 0 1 1274.5,502 L780.5,502 A2.5,2.5 0 0 1 778,499.5 L778,280.5 A2.5,2.5 0 0 1 780.5,278 " fill="none" style="stroke:#000000;stroke-width:1.5;"/><line style="stroke:#000000;stroke-width:1.5;" x1="778" x2="883.5859" y1="301.6094" y2="301.6094"/><text fill="#000000" font-family="sans-serif" font-size="14" font-weight="bold" lengthAdjust="spacing" textLength="92.5859" x="782" y="294.5332">Domain Layer</text></g><!--cluster infra--><g id="cluster_infra"><path d="M1319.5,122 L1452.7686,122 A3.75,3.75 0 0 1 1455.2686,124.5 L1462.2686,145.6094 L1925.5,145.6094 A2.5,2.5 0 0 1 1928,148.1094 L1928,499.5 A2.5,2.5 0 0 1 1925.5,502 L1319.5,502 A2.5,2.5 0 0 1 1317,499.5 L1317,124.5 A2.5,2.5 0 0 1 1319.5,122 " fill="none" style="stroke:#000000;stroke-width:1.5;"/><line style="stroke:#000000;stroke-width:1.5;" x1="1317" x2="1462.2686" y1="145.6094" y2="145.6094"/><text fill="#000000" font-family="sans-serif" font-size="14" font-weight="bold" lengthAdjust="spacing" textLength="132.2686" x="1321" y="138.5332">Infrastructure Layer</text></g><!--entity HealthController--><g id="elem_HealthController"><rect fill="#F1F1F1" height="47.6094" rx="2.5" ry="2.5" style="stroke:#181818;stroke-width:0.5;" width="141.1582" x="918.5" y="50"/><rect fill="#F1F1F1" height="10" style="stroke:#181818;stroke-width:0.5;" width="15" x="1039.6582" y="55"/><rect fill="#F1F1F1" height="2" style="stroke:#181818;stroke-width:0.5;" width="4" x="1037.6582" y="57"/><rect fill="#F1F1F1" height="2" style="stroke:#181818;stroke-width:0.5;" width="4" x="1037.6582" y="61"/><text fill="#000000" font-family="sans-serif" font-size="14" lengthAdjust="spacing" textLength="101.1582" x="933.5" y="84.5332">HealthController</text></g><!--entity InventoryController--><g id="elem_InventoryController"><rect fill="#F1F1F1" height="47.6094" rx="2.5" ry="2.5" style="stroke:#181818;stroke-width:0.5;" width="158.2754" x="1095" y="50"/><rect fill="#F1F1F1" height="10" style="stroke:#181818;stroke-width:0.5;" width="15" x="1233.2754" y="55"/><rect fill="#F1F1F1" height="2" style="stroke:#181818;stroke-width:0.5;" width="4" x="1231.2754" y="57"/><rect fill="#F1F1F1" height="2" style="stroke:#181818;stroke-width:0.5;" width="4" x="1231.2754" y="61"/><text fill="#000000" font-family="sans-serif" font-size="14" lengthAdjust="spacing" textLength="118.2754" x="1110" y="84.5332">InventoryController</text></g><!--entity ReservationController--><g id="elem_ReservationController"><rect fill="#F1F1F1" height="47.6094" rx="2.5" ry="2.5" style="stroke:#181818;stroke-width:0.5;" width="175.3926" x="708.5" y="50"/><rect fill="#F1F1F1" height="10" style="stroke:#181818;stroke-width:0.5;" width="15" x="863.8926" y="55"/><rect fill="#F1F1F1" height="2" style="stroke:#181818;stroke-width:0.5;" width="4" x="861.8926" y="57"/><rect fill="#F1F1F1" height="2" style="stroke:#181818;stroke-width:0.5;" width="4" x="861.8926" y="61"/><text fill="#000000" font-family="sans-serif" font-size="14" lengthAdjust="spacing" textLength="135.3926" x="723.5" y="84.5332">ReservationController</text></g><!--entity GlobalExceptionHandler--><g id="elem_GlobalExceptionHandler"><rect fill="#F1F1F1" height="47.6094" rx="2.5" ry="2.5" style="stroke:#181818;stroke-width:0.5;" width="190.9785" x="802.5" y="166"/><rect fill="#F1F1F1" height="10" style="stroke:#181818;stroke-width:0.5;" width="15" x="973.4785" y="171"/><rect fill="#F1F1F1" height="2" style="stroke:#181818;stroke-width:0.5;" width="4" x="971.4785" y="173"/><rect fill="#F1F1F1" height="2" style="stroke:#181818;stroke-width:0.5;" width="4" x="971.4785" y="177"/><text fill="#000000" font-family="sans-serif" font-size="14" lengthAdjust="spacing" textLength="150.9785" x="817.5" y="200.5332">GlobalExceptionHandler</text></g><!--entity ApiKeyAuthenticationFilter--><g id="elem_ApiKeyAuthenticationFilter"><rect fill="#F1F1F1" height="47.6094" rx="2.5" ry="2.5" style="stroke:#181818;stroke-width:0.5;" width="204.1992" x="1029" y="166"/><rect fill="#F1F1F1" height="10" style="stroke:#181818;stroke-width:0.5;" width="15" x="1213.1992" y="171"/><rect fill="#F1F1F1" height="2" style="stroke:#181818;stroke-width:0.5;" width="4" x="1211.1992" y="173"/><rect fill="#F1F1F1" height="2" style="stroke:#181818;stroke-width:0.5;" width="4" x="1211.1992" y="177"/><text fill="#000000" font-family="sans-serif" font-size="14" lengthAdjust="spacing" textLength="164.1992" x="1044" y="200.5332">ApiKeyAuthenticationFilter</text></g><!--entity InventoryService--><g id="elem_InventoryService"><rect fill="#F1F1F1" height="47.6094" rx="2.5" ry="2.5" style="stroke:#181818;stroke-width:0.5;" width="144.2686" x="30" y="166"/><rect fill="#F1F1F1" height="10" style="stroke:#181818;stroke-width:0.5;" width="15" x="154.2686" y="171"/><rect fill="#F1F1F1" height="2" style="stroke:#181818;stroke-width:0.5;" width="4" x="152.2686" y="173"/><rect fill="#F1F1F1" height="2" style="stroke:#181818;stroke-width:0.5;" width="4" x="152.2686" y="177"/><text fill="#000000" font-family="sans-serif" font-size="14" lengthAdjust="spacing" textLength="104.2686" x="45" y="200.5332">InventoryService</text></g><!--entity ReservationService--><g id="elem_ReservationService"><rect fill="#F1F1F1" height="47.6094" rx="2.5" ry="2.5" style="stroke:#181818;stroke-width:0.5;" width="161.3857" x="209.5" y="166"/><rect fill="#F1F1F1" height="10" style="stroke:#181818;stroke-width:0.5;" width="15" x="350.8857" y="171"/><rect fill="#F1F1F1" height="2" style="stroke:#181818;stroke-width:0.5;" width="4" x="348.8857" y="173"/><rect fill="#F1F1F1" height="2" style="stroke:#181818;stroke-width:0.5;" width="4" x="348.8857" y="177"/><text fill="#000000" font-family="sans-serif" font-size="14" lengthAdjust="spacing" textLength="121.3857" x="224.5" y="200.5332">ReservationService</text></g><!--entity ReservationExpiryJob--><g id="elem_ReservationExpiryJob"><rect fill="#F1F1F1" height="47.6094" rx="2.5" ry="2.5" style="stroke:#181818;stroke-width:0.5;" width="176.1719" x="406" y="166"/><rect fill="#F1F1F1" height="10" style="stroke:#181818;stroke-width:0.5;" width="15" x="562.1719" y="171"/><rect fill="#F1F1F1" height="2" style="stroke:#181818;stroke-width:0.5;" width="4" x="560.1719" y="173"/><rect fill="#F1F1F1" height="2" style="stroke:#181818;stroke-width:0.5;" width="4" x="560.1719" y="177"/><text fill="#000000" font-family="sans-serif" font-size="14" lengthAdjust="spacing" textLength="136.1719" x="421" y="200.5332">ReservationExpiryJob</text></g><!--entity InProcessEventPublisher--><g id="elem_InProcessEventPublisher"><rect fill="#F1F1F1" height="47.6094" rx="2.5" ry="2.5" style="stroke:#181818;stroke-width:0.5;" width="196.4131" x="30" y="322"/><rect fill="#F1F1F1" height="10" style="stroke:#181818;stroke-width:0.5;" width="15" x="206.4131" y="327"/><rect fill="#F1F1F1" height="2" style="stroke:#181818;stroke-width:0.5;" width="4" x="204.4131" y="329"/><rect fill="#F1F1F1" height="2" style="stroke:#181818;stroke-width:0.5;" width="4" x="204.4131" y="333"/><text fill="#000000" font-family="sans-serif" font-size="14" lengthAdjust="spacing" textLength="156.4131" x="45" y="356.5332">InProcessEventPublisher</text></g><!--entity ReservationEventRelay--><g id="elem_ReservationEventRelay"><rect fill="#F1F1F1" height="47.6094" rx="2.5" ry="2.5" style="stroke:#181818;stroke-width:0.5;" width="186.2959" x="261" y="322"/><rect fill="#F1F1F1" height="10" style="stroke:#181818;stroke-width:0.5;" width="15" x="427.2959" y="327"/><rect fill="#F1F1F1" height="2" style="stroke:#181818;stroke-width:0.5;" width="4" x="425.2959" y="329"/><rect fill="#F1F1F1" height="2" style="stroke:#181818;stroke-width:0.5;" width="4" x="425.2959" y="333"/><text fill="#000000" font-family="sans-serif" font-size="14" lengthAdjust="spacing" textLength="146.2959" x="276" y="356.5332">ReservationEventRelay</text></g><!--entity Reservation--><g id="elem_Reservation"><rect fill="#F1F1F1" height="47.6094" rx="2.5" ry="2.5" style="stroke:#181818;stroke-width:0.5;" width="114.7031" x="821.5" y="322"/><rect fill="#F1F1F1" height="10" style="stroke:#181818;stroke-width:0.5;" width="15" x="916.2031" y="327"/><rect fill="#F1F1F1" height="2" style="stroke:#181818;stroke-width:0.5;" width="4" x="914.2031" y="329"/><rect fill="#F1F1F1" height="2" style="stroke:#181818;stroke-width:0.5;" width="4" x="914.2031" y="333"/><text fill="#000000" font-family="sans-serif" font-size="14" lengthAdjust="spacing" textLength="74.7031" x="836.5" y="356.5332">Reservation</text></g><!--entity Inventory--><g id="elem_Inventory"><rect fill="#F1F1F1" height="47.6094" rx="2.5" ry="2.5" style="stroke:#181818;stroke-width:0.5;" width="97.5859" x="972" y="322"/><rect fill="#F1F1F1" height="10" style="stroke:#181818;stroke-width:0.5;" width="15" x="1049.5859" y="327"/><rect fill="#F1F1F1" height="2" style="stroke:#181818;stroke-width:0.5;" width="4" x="1047.5859" y="329"/><rect fill="#F1F1F1" height="2" style="stroke:#181818;stroke-width:0.5;" width="4" x="1047.5859" y="333"/><text fill="#000000" font-family="sans-serif" font-size="14" lengthAdjust="spacing" textLength="57.5859" x="987" y="356.5332">Inventory</text></g><!--entity ReservationState--><g id="elem_ReservationState"><rect fill="#F1F1F1" height="47.6094" rx="2.5" ry="2.5" style="stroke:#181818;stroke-width:0.5;" width="147.3926" x="1105.5" y="322"/><rect fill="#F1F1F1" height="10" style="stroke:#181818;stroke-width:0.5;" width="15" x="1232.8926" y="327"/><rect fill="#F1F1F1" height="2" style="stroke:#181818;stroke-width:0.5;" width="4" x="1230.8926" y="329"/><rect fill="#F1F1F1" height="2" style="stroke:#181818;stroke-width:0.5;" width="4" x="1230.8926" y="333"/><text fill="#000000" font-family="sans-serif" font-size="14" lengthAdjust="spacing" textLength="107.3926" x="1120.5" y="356.5332">ReservationState</text></g><!--entity ReservationFactory--><g id="elem_ReservationFactory"><rect fill="#F1F1F1" height="47.6094" rx="2.5" ry="2.5" style="stroke:#181818;stroke-width:0.5;" width="161.3789" x="821.5" y="430"/><rect fill="#F1F1F1" height="10" style="stroke:#181818;stroke-width:0.5;" width="15" x="962.8789" y="435"/><rect fill="#F1F1F1" height="2" style="stroke:#181818;stroke-width:0.5;" width="4" x="960.8789" y="437"/><rect fill="#F1F1F1" height="2" style="stroke:#181818;stroke-width:0.5;" width="4" x="960.8789" y="441"/><text fill="#000000" font-family="sans-serif" font-size="14" lengthAdjust="spacing" textLength="121.3789" x="836.5" y="464.5332">ReservationFactory</text></g><!--entity ReservationItem--><g id="elem_ReservationItem"><rect fill="#F1F1F1" height="47.6094" rx="2.5" ry="2.5" style="stroke:#181818;stroke-width:0.5;" width="141.9307" x="1018" y="430"/><rect fill="#F1F1F1" height="10" style="stroke:#181818;stroke-width:0.5;" width="15" x="1139.9307" y="435"/><rect fill="#F1F1F1" height="2" style="stroke:#181818;stroke-width:0.5;" width="4" x="1137.9307" y="437"/><rect fill="#F1F1F1" height="2" style="stroke:#181818;stroke-width:0.5;" width="4" x="1137.9307" y="441"/><text fill="#000000" font-family="sans-serif" font-size="14" lengthAdjust="spacing" textLength="101.9307" x="1033" y="464.5332">ReservationItem</text></g><!--entity JPA Entities--><g id="elem_JPA Entities"><rect fill="#F1F1F1" height="47.6094" rx="2.5" ry="2.5" style="stroke:#181818;stroke-width:0.5;" width="115.4756" x="1360.5" y="166"/><rect fill="#F1F1F1" height="10" style="stroke:#181818;stroke-width:0.5;" width="15" x="1455.9756" y="171"/><rect fill="#F1F1F1" height="2" style="stroke:#181818;stroke-width:0.5;" width="4" x="1453.9756" y="173"/><rect fill="#F1F1F1" height="2" style="stroke:#181818;stroke-width:0.5;" width="4" x="1453.9756" y="177"/><text fill="#000000" font-family="sans-serif" font-size="14" lengthAdjust="spacing" textLength="75.4756" x="1375.5" y="200.5332">JPA Entities</text></g><!--entity Spring Data Repositories--><g id="elem_Spring Data Repositories"><rect fill="#F1F1F1" height="47.6094" rx="2.5" ry="2.5" style="stroke:#181818;stroke-width:0.5;" width="195.6338" x="1511" y="166"/><rect fill="#F1F1F1" height="10" style="stroke:#181818;stroke-width:0.5;" width="15" x="1686.6338" y="171"/><rect fill="#F1F1F1" height="2" style="stroke:#181818;stroke-width:0.5;" width="4" x="1684.6338" y="173"/><rect fill="#F1F1F1" height="2" style="stroke:#181818;stroke-width:0.5;" width="4" x="1684.6338" y="177"/><text fill="#000000" font-family="sans-serif" font-size="14" lengthAdjust="spacing" textLength="155.6338" x="1526" y="200.5332">Spring Data Repositories</text></g><!--entity ReservationMapper--><g id="elem_ReservationMapper"><rect fill="#F1F1F1" height="47.6094" rx="2.5" ry="2.5" style="stroke:#181818;stroke-width:0.5;" width="162.1719" x="1742" y="166"/><rect fill="#F1F1F1" height="10" style="stroke:#181818;stroke-width:0.5;" width="15" x="1884.1719" y="171"/><rect fill="#F1F1F1" height="2" style="stroke:#181818;stroke-width:0.5;" width="4" x="1882.1719" y="173"/><rect fill="#F1F1F1" height="2" style="stroke:#181818;stroke-width:0.5;" width="4" x="1882.1719" y="177"/><text fill="#000000" font-family="sans-serif" font-size="14" lengthAdjust="spacing" textLength="122.1719" x="1757" y="200.5332">ReservationMapper</text></g><!--entity NatsEventPublisher--><g id="elem_NatsEventPublisher"><rect fill="#F1F1F1" height="47.6094" rx="2.5" ry="2.5" style="stroke:#181818;stroke-width:0.5;" width="162.9512" x="1360.5" y="322"/><rect fill="#F1F1F1" height="10" style="stroke:#181818;stroke-width:0.5;" width="15" x="1503.4512" y="327"/><rect fill="#F1F1F1" height="2" style="stroke:#181818;stroke-width:0.5;" width="4" x="1501.4512" y="329"/><rect fill="#F1F1F1" height="2" style="stroke:#181818;stroke-width:0.5;" width="4" x="1501.4512" y="333"/><text fill="#000000" font-family="sans-serif" font-size="14" lengthAdjust="spacing" textLength="122.9512" x="1375.5" y="356.5332">NatsEventPublisher</text></g><!--entity NatsOutboxRelay--><g id="elem_NatsOutboxRelay"><rect fill="#F1F1F1" height="47.6094" rx="2.5" ry="2.5" style="stroke:#181818;stroke-width:0.5;" width="149.7168" x="1559" y="322"/><rect fill="#F1F1F1" height="10" style="stroke:#181818;stroke-width:0.5;" width="15" x="1688.7168" y="327"/><rect fill="#F1F1F1" height="2" style="stroke:#181818;stroke-width:0.5;" width="4" x="1686.7168" y="329"/><rect fill="#F1F1F1" height="2" style="stroke:#181818;stroke-width:0.5;" width="4" x="1686.7168" y="333"/><text fill="#000000" font-family="sans-serif" font-size="14" lengthAdjust="spacing" textLength="109.7168" x="1574" y="356.5332">NatsOutboxRelay</text></g><!--entity ClockConfig--><g id="elem_ClockConfig"><rect fill="#F1F1F1" height="47.6094" rx="2.5" ry="2.5" style="stroke:#181818;stroke-width:0.5;" width="115.4756" x="1744.5" y="322"/><rect fill="#F1F1F1" height="10" style="stroke:#181818;stroke-width:0.5;" width="15" x="1839.9756" y="327"/><rect fill="#F1F1F1" height="2" style="stroke:#181818;stroke-width:0.5;" width="4" x="1837.9756" y="329"/><rect fill="#F1F1F1" height="2" style="stroke:#181818;stroke-width:0.5;" width="4" x="1837.9756" y="333"/><text fill="#000000" font-family="sans-serif" font-size="14" lengthAdjust="spacing" textLength="75.4756" x="1759.5" y="356.5332">ClockConfig</text></g><!--entity SecurityConfig--><g id="elem_SecurityConfig"><rect fill="#F1F1F1" height="47.6094" rx="2.5" ry="2.5" style="stroke:#181818;stroke-width:0.5;" width="131.041" x="1376.5" y="430"/><rect fill="#F1F1F1" height="10" style="stroke:#181818;stroke-width:0.5;" width="15" x="1487.541" y="435"/><rect fill="#F1F1F1" height="2" style="stroke:#181818;stroke-width:0.5;" width="4" x="1485.541" y="437"/><rect fill="#F1F1F1" height="2" style="stroke:#181818;stroke-width:0.5;" width="4" x="1485.541" y="441"/><text fill="#000000" font-family="sans-serif" font-size="14" lengthAdjust="spacing" textLength="91.041" x="1391.5" y="464.5332">SecurityConfig</text></g><!--link api to app--><g id="link_api_app"><path d="M664.9357,91.4143 C664.8586,91.5712 664.7811,91.729 664.7032,91.8876 C664.3915,92.5222 664.0731,93.1701 663.7486,93.8308 C658.5559,104.4009 651.7719,118.2106 644.9888,132.0188 C638.2056,145.8269 631.4234,159.6334 626.2345,170.1973 C625.9102,170.8576 625.5921,171.5052 625.2807,172.1393 C625.2028,172.2978 627.7706,167.0701 627.6935,167.2269 " fill="none" id="api-to-app" style="stroke:#181818;stroke-width:1;"/><polygon fill="#181818" points="625.0483,172.6123,632.6064,166.2977,627.2527,168.1245,625.4259,162.7707,625.0483,172.6123" style="stroke:#181818;stroke-width:1;"/></g><!--link app to domain--><g id="link_app_domain"><path d="M625.1672,198.4421 C625.3147,198.5765 625.464,198.7126 625.615,198.8502 C630.4481,203.2541 637.0825,209.2995 644.9175,216.4389 C660.5875,230.7178 681.06,249.3731 701.53,268.0263 C722,286.6794 742.4675,305.3303 758.1275,319.6005 C765.9575,326.7355 772.5856,332.7754 777.4112,337.1728 C777.5621,337.3102 773.2762,333.4047 773.4235,333.5389 " fill="none" id="app-to-domain" style="stroke:#181818;stroke-width:1;"/><polygon fill="#181818" points="777.8584,337.5802,773.9002,328.5617,774.1626,334.2125,768.5119,334.4749,777.8584,337.5802" style="stroke:#181818;stroke-width:1;"/></g><!--link infra to domain--><g id="link_infra_domain"><path d="M1316.9062,205.7597 C1316.8511,205.85 1316.7958,205.9406 1316.7402,206.0314 C1316.2956,206.7583 1315.8341,207.5021 1315.3561,208.2607 C1313.4439,211.2953 1311.2669,214.5669 1308.8425,217.935 C1299.145,231.4075 1285.49,246.425 1269,254 C1245.57,264.76 825.02,245.76 805,262 C801.4413,264.8863 798.4658,268.2906 795.9845,272.0453 C794.7439,273.9227 796.2866,270.5093 795.2819,272.5408 " fill="none" id="infra-to-domain" style="stroke:#181818;stroke-width:1;"/><polygon fill="#181818" points="792.6221,277.9191,800.1973,271.6249,794.8386,273.4372,793.0263,268.0785,792.6221,277.9191" style="stroke:#181818;stroke-width:1;"/></g><!--link infra to app--><g id="link_infra_app"><path d="M1316.9191,169.9102 C1316.815,169.6821 1316.7098,169.4528 1316.6036,169.2222 C1316.179,168.2999 1315.7384,167.3576 1315.2818,166.3976 C1313.4556,162.5576 1311.3744,158.4347 1309.04,154.1762 C1299.7025,137.1425 1286.315,117.94 1269,106 C1262.43,101.47 1259.43,102.89 1251.5,102 C1221.58,98.62 739.42,98.62 709.5,102 C701.57,102.89 698.87,101.94 692,106 C671.8,117.925 654.0575,137.1275 640.9075,154.165 C637.62,158.4244 634.6195,162.5484 631.9395,166.3896 C630.5994,168.3103 629.3395,170.1601 628.1638,171.9209 C627.576,172.8013 627.0092,173.6593 626.464,174.4928 C626.1914,174.9096 625.9242,175.3202 625.6625,175.7243 C625.5316,175.9264 625.4021,176.1269 625.274,176.3257 C625.2099,176.4251 628.3907,171.477 628.3274,171.5756 " fill="none" id="infra-to-app" style="stroke:#181818;stroke-width:1;"/><polygon fill="#181818" points="625.0828,176.6227,633.3143,171.2151,627.7866,172.4168,626.5849,166.889,625.0828,176.6227" style="stroke:#181818;stroke-width:1;"/></g><!--SRC=[TPB1Ri8m38RlVOg8EwymgO8oojXMmN7QmGs6MeGaIbn4XNZt9RGWMjWj-l_O_l8x5kGUTYX6QP6B9JJeHWAy04lYd0ZnCqTGN4sCPcUKGlSRnLmVKRDnpK1VeKTt12QZ1ywxCYMex2JHHdSEUdEpKaiVsAGrLw4doMlrZ1H7-vBOEv-rgdDxdBRbl2Ej0m597FBy8sSdIwvPcB9xL-6CHE-psAoeIqM-UdxRrLsXWgP7E3K7e4UuJIkS1-Nz29z06VW9SmRorTsSyT13oFNMWMTNIwuTFg1GD5gIHP6AB2JDXFxQS6qTwPsO0eDOeJMUmgoR-J3jCuJTXV45_2gZA7_NN9fJbqxG9ih8VVWDMzgrqr3MZhYvIPSaYPzjF7wBoqpYGkEvpIvfkLyAuUOV]--></g></svg>