<svg xmlns="http://www.w3.org/2000/svg" xmlns:xlink="http://www.w3.org/1999/xlink" contentStyleType="text/css" height="858px" preserveAspectRatio="none" style="width:1165px;height:858px;background:#FFFFFF;" version="1.1" viewBox="0 0 1165 858" width="1165px" zoomAndPan="magnify"><defs/><g><rect fill="none" height="239.4609" style="stroke:#000000;stroke-width:1.5;" width="947.1934" x="212.4067" y="407.7344"/><line style="stroke:#181818;stroke-width:0.5;stroke-dasharray:5.0,5.0;" x1="43" x2="43" y1="55.2188" y2="804.6016"/><line style="stroke:#181818;stroke-width:0.5;stroke-dasharray:5.0,5.0;" x1="262.4067" x2="262.4067" y1="55.2188" y2="804.6016"/><line style="stroke:#181818;stroke-width:0.5;stroke-dasharray:5.0,5.0;" x1="497.5273" x2="497.5273" y1="55.2188" y2="804.6016"/><line style="stroke:#181818;stroke-width:0.5;stroke-dasharray:5.0,5.0;" x1="749.6157" x2="749.6157" y1="55.2188" y2="804.6016"/><line style="stroke:#181818;stroke-width:0.5;stroke-dasharray:5.0,5.0;" x1="932.1392" x2="932.1392" y1="55.2188" y2="804.6016"/><line style="stroke:#181818;stroke-width:0.5;stroke-dasharray:5.0,5.0;" x1="1090.3315" x2="1090.3315" y1="55.2188" y2="804.6016"/><rect fill="#E2E2F0" height="31.6094" rx="2.5" ry="2.5" style="stroke:#181818;stroke-width:0.5;" width="77.041" x="5" y="22.6094"/><text fill="#000000" font-family="sans-serif" font-size="14" lengthAdjust="spacing" textLength="63.041" x="12" y="44.1426">Scheduler</text><rect fill="#E2E2F0" height="31.6094" rx="2.5" ry="2.5" style="stroke:#181818;stroke-width:0.5;" width="77.041" x="5" y="803.6016"/><text fill="#000000" font-family="sans-serif" font-size="14" lengthAdjust="spacing" textLength="63.041" x="12" y="825.1348">Scheduler</text><rect fill="#E2E2F0" height="49.2188" rx="2.5" ry="2.5" style="stroke:#181818;stroke-width:0.5;" width="80.1514" x="222.4067" y="5"/><text fill="#000000" font-family="sans-serif" font-size="14" lengthAdjust="spacing" textLength="66.1514" x="229.4067" y="26.5332">Instance A</text><text fill="#000000" font-family="sans-serif" font-size="14" lengthAdjust="spacing" textLength="50.5654" x="237.1997" y="44.1426">(winner)</text><rect fill="#E2E2F0" height="49.2188" rx="2.5" ry="2.5" style="stroke:#181818;stroke-width:0.5;" width="80.1514" x="222.4067" y="803.6016"/><text fill="#000000" font-family="sans-serif" font-size="14" lengthAdjust="spacing" textLength="66.1514" x="229.4067" y="825.1348">Instance A</text><text fill="#000000" font-family="sans-serif" font-size="14" lengthAdjust="spacing" textLength="50.5654" x="237.1997" y="842.7441">(winner)</text><rect fill="#E2E2F0" height="49.2188" rx="2.5" ry="2.5" style="stroke:#181818;stroke-width:0.5;" width="80.1514" x="457.5273" y="5"/><text fill="#000000" font-family="sans-serif" font-size="14" lengthAdjust="spacing" textLength="66.1514" x="464.5273" y="26.5332">Instance B</text><text fill="#000000" font-family="sans-serif" font-size="14" lengthAdjust="spacing" textLength="39.6689" x="477.7686" y="44.1426">(loser)</text><rect fill="#E2E2F0" height="49.2188" rx="2.5" ry="2.5" style="stroke:#181818;stroke-width:0.5;" width="80.1514" x="457.5273" y="803.6016"/><text fill="#000000" font-family="sans-serif" font-size="14" lengthAdjust="spacing" textLength="66.1514" x="464.5273" y="825.1348">Instance B</text><text fill="#000000" font-family="sans-serif" font-size="14" lengthAdjust="spacing" textLength="39.6689" x="477.7686" y="842.7441">(loser)</text><rect fill="#E2E2F0" height="49.2188" rx="2.5" ry="2.5" style="stroke:#181818;stroke-width:0.5;" width="166.5234" x="666.6157" y="5"/><text fill="#000000" font-family="sans-serif" font-size="14" lengthAdjust="spacing" textLength="76.2617" x="711.7466" y="26.5332">PostgreSQL</text><text fill="#000000" font-family="sans-serif" font-size="14" lengthAdjust="spacing" textLength="152.5234" x="673.6157" y="44.1426">reservation_expiry_state</text><rect fill="#E2E2F0" height="49.2188" rx="2.5" ry="2.5" style="stroke:#181818;stroke-width:0.5;" width="166.5234" x="666.6157" y="803.6016"/><text fill="#000000" font-family="sans-serif" font-size="14" lengthAdjust="spacing" textLength="76.2617" x="711.7466" y="825.1348">PostgreSQL</text><text fill="#000000" font-family="sans-serif" font-size="14" lengthAdjust="spacing" textLength="152.5234" x="673.6157" y="842.7441">reservation_expiry_state</text><rect fill="#E2E2F0" height="31.6094" rx="2.5" ry="2.5" style="stroke:#181818;stroke-width:0.5;" width="178.1924" x="843.1392" y="22.6094"/><text fill="#000000" font-family="sans-serif" font-size="14" lengthAdjust="spacing" textLength="164.1924" x="850.1392" y="44.1426">ReservationJpaRepository</text><rect fill="#E2E2F0" height="31.6094" rx="2.5" ry="2.5" style="stroke:#181818;stroke-width:0.5;" width="178.1924" x="843.1392" y="803.6016"/><text fill="#000000" font-family="sans-serif" font-size="14" lengthAdjust="spacing" textLength="164.1924" x="850.1392" y="825.1348">ReservationJpaRepository</text><rect fill="#E2E2F0" height="31.6094" rx="2.5" ry="2.5" style="stroke:#181818;stroke-width:0.5;" width="118.2686" x="1031.3315" y="22.6094"/><text fill="#000000" font-family="sans-serif" font-size="14" lengthAdjust="spacing" textLength="104.2686" x="1038.3315" y="44.1426">InventoryService</text><rect fill="#E2E2F0" height="31.6094" rx="2.5" ry="2.5" style="stroke:#181818;stroke-width:0.5;" width="118.2686" x="1031.3315" y="803.6016"/><text fill="#000000" font-family="sans-serif" font-size="14" lengthAdjust="spacing" textLength="104.2686" x="1038.3315" y="825.1348">InventoryService</text><polygon fill="#181818" points="250.4824,83.5703,260.4824,87.5703,250.4824,91.5703,254.4824,87.5703" style="stroke:#181818;stroke-width:1;"/><line style="stroke:#181818;stroke-width:1;" x1="43.5205" x2="256.4824" y1="87.5703" y2="87.5703"/><text fill="#000000" font-family="sans-serif" font-size="13" lengthAdjust="spacing" textLength="194.9619" x="50.5205" y="82.7139">@Scheduled(fixedDelay=120000)</text><polygon fill="#181818" points="485.603,113.9219,495.603,117.9219,485.603,121.9219,489.603,117.9219" style="stroke:#181818;stroke-width:1;"/><line style="stroke:#181818;stroke-width:1;" x1="43.5205" x2="491.603" y1="117.9219" y2="117.9219"/><text fill="#000000" font-family="sans-serif" font-size="13" lengthAdjust="spacing" textLength="194.9619" x="50.5205" y="113.0654">@Scheduled(fixedDelay=120000)</text><polygon fill="#181818" points="737.8774,144.2734,747.8774,148.2734,737.8774,152.2734,741.8774,148.2734" style="stroke:#181818;stroke-width:1;"/><line style="stroke:#181818;stroke-width:1;" x1="262.4824" x2="743.8774" y1="148.2734" y2="148.2734"/><text fill="#000000" font-family="sans-serif" font-size="13" lengthAdjust="spacing" textLength="228.2744" x="269.4824" y="143.417">SELECT FOR UPDATE SKIP LOCKED</text><polygon fill="#181818" points="737.8774,174.625,747.8774,178.625,737.8774,182.625,741.8774,178.625" style="stroke:#181818;stroke-width:1;"/><line style="stroke:#181818;stroke-width:1;" x1="497.603" x2="743.8774" y1="178.625" y2="178.625"/><text fill="#000000" font-family="sans-serif" font-size="13" lengthAdjust="spacing" textLength="228.2744" x="504.603" y="173.7686">SELECT FOR UPDATE SKIP LOCKED</text><polygon fill="#181818" points="508.603,204.9766,498.603,208.9766,508.603,212.9766,504.603,208.9766" style="stroke:#181818;stroke-width:1;"/><line style="stroke:#181818;stroke-width:1;stroke-dasharray:2.0,2.0;" x1="502.603" x2="748.8774" y1="208.9766" y2="208.9766"/><text fill="#000000" font-family="sans-serif" font-size="13" lengthAdjust="spacing" textLength="139.4326" x="514.603" y="204.1201">empty (row locked by A)</text><path d="M502,221.9766 L502,247.9766 L641,247.9766 L641,231.9766 L631,221.9766 L502,221.9766 " fill="#FEFFDD" style="stroke:#181818;stroke-width:0.5;"/><path d="M631,221.9766 L631,231.9766 L641,231.9766 L631,221.9766 " fill="#FEFFDD" style="stroke:#181818;stroke-width:0.5;"/><text fill="#000000" font-family="sans-serif" font-size="13" lengthAdjust="spacing" textLength="118.4854" x="508" y="240.4717">Returns immediately</text><polygon fill="#181818" points="54.5205,271.6797,44.5205,275.6797,54.5205,279.6797,50.5205,275.6797" style="stroke:#181818;stroke-width:1;"/><line style="stroke:#181818;stroke-width:1;stroke-dasharray:2.0,2.0;" x1="48.5205" x2="496.603" y1="275.6797" y2="275.6797"/><text fill="#000000" font-family="sans-serif" font-size="13" lengthAdjust="spacing" textLength="80.1899" x="60.5205" y="270.8232">skip this cycle</text><polygon fill="#181818" points="273.4824,302.0313,263.4824,306.0313,273.4824,310.0313,269.4824,306.0313" style="stroke:#181818;stroke-width:1;"/><line style="stroke:#181818;stroke-width:1;stroke-dasharray:2.0,2.0;" x1="267.4824" x2="748.8774" y1="306.0313" y2="306.0313"/><text fill="#000000" font-family="sans-serif" font-size="13" lengthAdjust="spacing" textLength="95.3862" x="279.4824" y="301.1748">coordination row</text><line style="stroke:#181818;stroke-width:1;" x1="262.4824" x2="304.4824" y1="336.3828" y2="336.3828"/><line style="stroke:#181818;stroke-width:1;" x1="304.4824" x2="304.4824" y1="336.3828" y2="349.3828"/><line style="stroke:#181818;stroke-width:1;" x1="263.4824" x2="304.4824" y1="349.3828" y2="349.3828"/><polygon fill="#181818" points="273.4824,345.3828,263.4824,349.3828,273.4824,353.3828,269.4824,349.3828" style="stroke:#181818;stroke-width:1;"/><text fill="#000000" font-family="sans-serif" font-size="13" lengthAdjust="spacing" textLength="162.9443" x="269.4824" y="331.5264">processingInProgress = true</text><line style="stroke:#181818;stroke-width:1;" x1="262.4824" x2="304.4824" y1="379.7344" y2="379.7344"/><line style="stroke:#181818;stroke-width:1;" x1="304.4824" x2="304.4824" y1="379.7344" y2="392.7344"/><line style="stroke:#181818;stroke-width:1;" x1="263.4824" x2="304.4824" y1="392.7344" y2="392.7344"/><polygon fill="#181818" points="273.4824,388.7344,263.4824,392.7344,273.4824,396.7344,269.4824,392.7344" style="stroke:#181818;stroke-width:1;"/><text fill="#000000" font-family="sans-serif" font-size="13" lengthAdjust="spacing" textLength="221.1206" x="269.4824" y="374.8779">findExpiredPendingReservations(now)</text><path d="M212.4067,407.7344 L284.8413,407.7344 L284.8413,416.0859 L274.8413,426.0859 L212.4067,426.0859 L212.4067,407.7344 " fill="#EEEEEE" style="stroke:#000000;stroke-width:1.5;"/><rect fill="none" height="239.4609" style="stroke:#000000;stroke-width:1.5;" width="947.1934" x="212.4067" y="407.7344"/><text fill="#000000" font-family="sans-serif" font-size="13" font-weight="bold" lengthAdjust="spacing" textLength="27.4346" x="227.4067" y="422.2295">loop</text><text fill="#000000" font-family="sans-serif" font-size="11" font-weight="bold" lengthAdjust="spacing" textLength="154.666" x="299.8413" y="421.1533">[for each expired reservation]</text><polygon fill="#181818" points="920.2354,444.4375,930.2354,448.4375,920.2354,452.4375,924.2354,448.4375" style="stroke:#181818;stroke-width:1;"/><line style="stroke:#181818;stroke-width:1;" x1="262.4824" x2="926.2354" y1="448.4375" y2="448.4375"/><text fill="#000000" font-family="sans-serif" font-size="13" lengthAdjust="spacing" textLength="119.209" x="269.4824" y="443.5811">findByIdWithLock(id)</text><polygon fill="#181818" points="273.4824,474.7891,263.4824,478.7891,273.4824,482.7891,269.4824,478.7891" style="stroke:#181818;stroke-width:1;"/><line style="stroke:#181818;stroke-width:1;stroke-dasharray:2.0,2.0;" x1="267.4824" x2="931.2354" y1="478.7891" y2="478.7891"/><text fill="#000000" font-family="sans-serif" font-size="13" lengthAdjust="spacing" textLength="101.8799" x="279.4824" y="473.9326">ReservationEntity</text><line style="stroke:#181818;stroke-width:1;" x1="262.4824" x2="304.4824" y1="509.1406" y2="509.1406"/><line style="stroke:#181818;stroke-width:1;" x1="304.4824" x2="304.4824" y1="509.1406" y2="522.1406"/><line style="stroke:#181818;stroke-width:1;" x1="263.4824" x2="304.4824" y1="522.1406" y2="522.1406"/><polygon fill="#181818" points="273.4824,518.1406,263.4824,522.1406,273.4824,526.1406,269.4824,522.1406" style="stroke:#181818;stroke-width:1;"/><text fill="#000000" font-family="sans-serif" font-size="13" lengthAdjust="spacing" textLength="116.689" x="269.4824" y="504.2842">toDomain + cancel()</text><polygon fill="#181818" points="1078.4658,548.4922,1088.4658,552.4922,1078.4658,556.4922,1082.4658,552.4922" style="stroke:#181818;stroke-width:1;"/><line style="stroke:#181818;stroke-width:1;" x1="262.4824" x2="1084.4658" y1="552.4922" y2="552.4922"/><text fill="#000000" font-family="sans-serif" font-size="13" lengthAdjust="spacing" textLength="114.8672" x="269.4824" y="547.6357">releaseStock(items)</text><line style="stroke:#181818;stroke-width:1;" x1="262.4824" x2="304.4824" y1="582.8438" y2="582.8438"/><line style="stroke:#181818;stroke-width:1;" x1="304.4824" x2="304.4824" y1="582.8438" y2="595.8438"/><line style="stroke:#181818;stroke-width:1;" x1="263.4824" x2="304.4824" y1="595.8438" y2="595.8438"/><polygon fill="#181818" points="273.4824,591.8438,263.4824,595.8438,273.4824,599.8438,269.4824,595.8438" style="stroke:#181818;stroke-width:1;"/><text fill="#000000" font-family="sans-serif" font-size="13" lengthAdjust="spacing" textLength="163.2998" x="269.4824" y="577.9873">updateStatus(CANCELLED)</text><line style="stroke:#181818;stroke-width:1;" x1="262.4824" x2="304.4824" y1="626.1953" y2="626.1953"/><line style="stroke:#181818;stroke-width:1;" x1="304.4824" x2="304.4824" y1="626.1953" y2="639.1953"/><line style="stroke:#181818;stroke-width:1;" x1="263.4824" x2="304.4824" y1="639.1953" y2="639.1953"/><polygon fill="#181818" points="273.4824,635.1953,263.4824,639.1953,273.4824,643.1953,269.4824,639.1953" style="stroke:#181818;stroke-width:1;"/><text fill="#000000" font-family="sans-serif" font-size="13" lengthAdjust="spacing" textLength="205.2324" x="269.4824" y="621.3389">publish ReservationCancelledEvent</text><line style="stroke:#181818;stroke-width:1;" x1="262.4824" x2="304.4824" y1="676.5469" y2="676.5469"/><line style="stroke:#181818;stroke-width:1;" x1="304.4824" x2="304.4824" y1="676.5469" y2="689.5469"/><line style="stroke:#181818;stroke-width:1;" x1="263.4824" x2="304.4824" y1="689.5469" y2="689.5469"/><polygon fill="#181818" points="273.4824,685.5469,263.4824,689.5469,273.4824,693.5469,269.4824,689.5469" style="stroke:#181818;stroke-width:1;"/><text fill="#000000" font-family="sans-serif" font-size="13" lengthAdjust="spacing" textLength="168.0034" x="269.4824" y="671.6904">processingInProgress = false</text><polygon fill="#181818" points="737.8774,715.8984,747.8774,719.8984,737.8774,723.8984,741.8774,719.8984" style="stroke:#181818;stroke-width:1;"/><line style="stroke:#181818;stroke-width:1;" x1="262.4824" x2="743.8774" y1="719.8984" y2="719.8984"/><text fill="#000000" font-family="sans-serif" font-size="13" lengthAdjust="spacing" textLength="126.458" x="269.4824" y="715.042">save coordination row</text><path d="M267,732.8984 L267,758.8984 L433,758.8984 L433,742.8984 L423,732.8984 L267,732.8984 " fill="#FEFFDD" style="stroke:#181818;stroke-width:0.5;"/><path d="M423,732.8984 L423,742.8984 L433,742.8984 L423,732.8984 " fill="#FEFFDD" style="stroke:#181818;stroke-width:0.5;"/><text fill="#000000" font-family="sans-serif" font-size="13" lengthAdjust="spacing" textLength="145.4375" x="273" y="751.3936">Next @Scheduled trigger</text><polygon fill="#181818" points="54.5205,782.6016,44.5205,786.6016,54.5205,790.6016,50.5205,786.6016" style="stroke:#181818;stroke-width:1;"/><line style="stroke:#181818;stroke-width:1;stroke-dasharray:2.0,2.0;" x1="48.5205" x2="261.4824" y1="786.6016" y2="786.6016"/><text fill="#000000" font-family="sans-serif" font-size="13" lengthAdjust="spacing" textLength="28.9199" x="60.5205" y="781.7451">done</text><!--SRC=[ZP91Rvmm48Nl_XMZd41LfRR7bL8L5YhHe6GBgNg953bc5gnuRSiskyk_xm0YIr9LAJSqtxmPlpUMko25j5m7kAf5Xqslq5q1zp3zCRi62kq3rm8XUT3HIMgDBfxOv1zSIfmoVi7IrzZE-D0wh7-M3zeXKKSUfD6FUBRI3O-a4N3gozuqLXVuX-KLMkDbC6wOuAfwkymHzLYjgKUAMR6e6PiU21-_GhA1RylRcsWlpzXagFXm_VdB9_hY2vc-Hx9an3BYwhpCj_Vm_Qw2NxiikS-XlYbsKDvjR_ACfV-7PSJDO_5Wmm2HCoTGHZpJEay3937J9Y0usNO1p7u4AmozqnxauO2D90VLm6QLQV4D-6Tf8NJIWnY4GhOC8HU4CQwHUZ8MQDJy6YfOPmHwBtLRw9qp59htS0t1zVZ2xALkyZ4vR7QeIQPTnUGZRKvaZpB6mjuuG2uwm1c7LVWCO1Aigban7OhcjmnTIO-EP1DJlQgMVLS3SXra69PkgWMJcGEN6Zw066zHHV5IBUeDZLJ8FTPXqWruyF6gkRSDELVJ0VO-sYQtsxmiysnDsFv9IT-jLzXEO-Wmyl7W67d0tZDmpvN7oyruViI_GtWTCOdTuZcixf1Ya6sBRjIvnDmOZNy0]--></g></svg>