<svg xmlns="http://www.w3.org/2000/svg" xmlns:xlink="http://www.w3.org/1999/xlink" contentStyleType="text/css" height="1051px" preserveAspectRatio="none" style="width:1598px;height:1051px;background:#FFFFFF;" version="1.1" viewBox="0 0 1598 1051" width="1598px" zoomAndPan="magnify"><defs/><g><rect fill="none" height="319.8672" style="stroke:#000000;stroke-width:1.5;" width="1215.3745" x="123.9316" y="129.9609"/><line style="stroke:#181818;stroke-width:0.5;stroke-dasharray:5.0,5.0;" x1="25" x2="25" y1="82.6094" y2="969.75"/><line style="stroke:#181818;stroke-width:0.5;stroke-dasharray:5.0,5.0;" x1="200.9316" x2="200.9316" y1="82.6094" y2="969.75"/><line style="stroke:#181818;stroke-width:0.5;stroke-dasharray:5.0,5.0;" x1="409.4009" x2="409.4009" y1="82.6094" y2="969.75"/><line style="stroke:#181818;stroke-width:0.5;stroke-dasharray:5.0,5.0;" x1="593.5933" x2="593.5933" y1="82.6094" y2="969.75"/><line style="stroke:#181818;stroke-width:0.5;stroke-dasharray:5.0,5.0;" x1="763.0063" x2="763.0063" y1="82.6094" y2="969.75"/><line style="stroke:#181818;stroke-width:0.5;stroke-dasharray:5.0,5.0;" x1="915.6333" x2="915.6333" y1="82.6094" y2="969.75"/><line style="stroke:#181818;stroke-width:0.5;stroke-dasharray:5.0,5.0;" x1="1165.4438" x2="1165.4438" y1="82.6094" y2="969.75"/><line style="stroke:#181818;stroke-width:0.5;stroke-dasharray:5.0,5.0;" x1="1303.4126" x2="1303.4126" y1="82.6094" y2="969.75"/><line style="stroke:#181818;stroke-width:0.5;stroke-dasharray:5.0,5.0;" x1="1405.9917" x2="1405.9917" y1="82.6094" y2="969.75"/><line style="stroke:#181818;stroke-width:0.5;stroke-dasharray:5.0,5.0;" x1="1523.5708" x2="1523.5708" y1="82.6094" y2="969.75"/><text fill="#000000" font-family="sans-serif" font-size="14" lengthAdjust="spacing" textLength="35.793" x="5" y="79.5332">Client</text><ellipse cx="25.8965" cy="13.5" fill="#E2E2F0" rx="8" ry="8" style="stroke:#181818;stroke-width:0.5;"/><path d="M25.8965,21.5 L25.8965,48.5 M12.8965,29.5 L38.8965,29.5 M25.8965,48.5 L12.8965,63.5 M25.8965,48.5 L38.8965,63.5 " fill="none" style="stroke:#181818;stroke-width:0.5;"/><text fill="#000000" font-family="sans-serif" font-size="14" lengthAdjust="spacing" textLength="35.793" x="5" y="983.2832">Client</text><ellipse cx="25.8965" cy="994.8594" fill="#E2E2F0" rx="8" ry="8" style="stroke:#181818;stroke-width:0.5;"/><path d="M25.8965,1002.8594 L25.8965,1029.8594 M12.8965,1010.8594 L38.8965,1010.8594 M25.8965,1029.8594 L12.8965,1044.8594 M25.8965,1029.8594 L38.8965,1044.8594 " fill="none" style="stroke:#181818;stroke-width:0.5;"/><rect fill="#E2E2F0" height="31.6094" rx="2.5" ry="2.5" style="stroke:#181818;stroke-width:0.5;" width="135.3857" x="133.9316" y="50"/><text fill="#000000" font-family="sans-serif" font-size="14" lengthAdjust="spacing" textLength="121.3857" x="140.9316" y="71.5332">ReservationService</text><rect fill="#E2E2F0" height="31.6094" rx="2.5" ry="2.5" style="stroke:#181818;stroke-width:0.5;" width="135.3857" x="133.9316" y="968.75"/><text fill="#000000" font-family="sans-serif" font-size="14" lengthAdjust="spacing" textLength="121.3857" x="140.9316" y="990.2832">ReservationService</text><rect fill="#E2E2F0" height="31.6094" rx="2.5" ry="2.5" style="stroke:#181818;stroke-width:0.5;" width="178.1924" x="320.4009" y="50"/><text fill="#000000" font-family="sans-serif" font-size="14" lengthAdjust="spacing" textLength="164.1924" x="327.4009" y="71.5332">ReservationJpaRepository</text><rect fill="#E2E2F0" height="31.6094" rx="2.5" ry="2.5" style="stroke:#181818;stroke-width:0.5;" width="178.1924" x="320.4009" y="968.75"/><text fill="#000000" font-family="sans-serif" font-size="14" lengthAdjust="spacing" textLength="164.1924" x="327.4009" y="990.2832">ReservationJpaRepository</text><rect fill="#E2E2F0" height="31.6094" rx="2.5" ry="2.5" style="stroke:#181818;stroke-width:0.5;" width="170.4131" x="508.5933" y="50"/><text fill="#000000" font-family="sans-serif" font-size="14" lengthAdjust="spacing" textLength="156.4131" x="515.5933" y="71.5332">InProcessEventPublisher</text><rect fill="#E2E2F0" height="31.6094" rx="2.5" ry="2.5" style="stroke:#181818;stroke-width:0.5;" width="170.4131" x="508.5933" y="968.75"/><text fill="#000000" font-family="sans-serif" font-size="14" lengthAdjust="spacing" textLength="156.4131" x="515.5933" y="990.2832">InProcessEventPublisher</text><rect fill="#E2E2F0" height="31.6094" rx="2.5" ry="2.5" style="stroke:#181818;stroke-width:0.5;" width="148.627" x="689.0063" y="50"/><text fill="#000000" font-family="sans-serif" font-size="14" lengthAdjust="spacing" textLength="134.627" x="696.0063" y="71.5332">AuditEventSubscriber</text><rect fill="#E2E2F0" height="31.6094" rx="2.5" ry="2.5" style="stroke:#181818;stroke-width:0.5;" width="148.627" x="689.0063" y="968.75"/><text fill="#000000" font-family="sans-serif" font-size="14" lengthAdjust="spacing" textLength="134.627" x="696.0063" y="990.2832">AuditEventSubscriber</text><rect fill="#E2E2F0" height="31.6094" rx="2.5" ry="2.5" style="stroke:#181818;stroke-width:0.5;" width="136.9512" x="847.6333" y="50"/><text fill="#000000" font-family="sans-serif" font-size="14" lengthAdjust="spacing" textLength="122.9512" x="854.6333" y="71.5332">NatsEventPublisher</text><rect fill="#E2E2F0" height="31.6094" rx="2.5" ry="2.5" style="stroke:#181818;stroke-width:0.5;" width="136.9512" x="847.6333" y="968.75"/><text fill="#000000" font-family="sans-serif" font-size="14" lengthAdjust="spacing" textLength="122.9512" x="854.6333" y="990.2832">NatsEventPublisher</text><rect fill="#E2E2F0" height="49.2188" rx="2.5" ry="2.5" style="stroke:#181818;stroke-width:0.5;" width="123.6895" x="1104.4438" y="32.3906"/><text fill="#000000" font-family="sans-serif" font-size="14" lengthAdjust="spacing" textLength="63.7998" x="1134.3887" y="53.9238">JetStream</text><text fill="#000000" font-family="sans-serif" font-size="14" lengthAdjust="spacing" textLength="109.6895" x="1111.4438" y="71.5332">RESERVATIONS</text><rect fill="#E2E2F0" height="49.2188" rx="2.5" ry="2.5" style="stroke:#181818;stroke-width:0.5;" width="123.6895" x="1104.4438" y="968.75"/><text fill="#000000" font-family="sans-serif" font-size="14" lengthAdjust="spacing" textLength="63.7998" x="1134.3887" y="990.2832">JetStream</text><text fill="#000000" font-family="sans-serif" font-size="14" lengthAdjust="spacing" textLength="109.6895" x="1111.4438" y="1007.8926">RESERVATIONS</text><rect fill="#E2E2F0" height="49.2188" rx="2.5" ry="2.5" style="stroke:#181818;stroke-width:0.5;" width="92.5791" x="1257.4126" y="32.3906"/><text fill="#000000" font-family="sans-serif" font-size="14" lengthAdjust="spacing" textLength="78.5791" x="1264.4126" y="53.9238">Downstream</text><text fill="#000000" font-family="sans-serif" font-size="14" lengthAdjust="spacing" textLength="77.8066" x="1264.7988" y="71.5332">Consumer A</text><rect fill="#E2E2F0" height="49.2188" rx="2.5" ry="2.5" style="stroke:#181818;stroke-width:0.5;" width="92.5791" x="1257.4126" y="968.75"/><text fill="#000000" font-family="sans-serif" font-size="14" lengthAdjust="spacing" textLength="78.5791" x="1264.4126" y="990.2832">Downstream</text><text fill="#000000" font-family="sans-serif" font-size="14" lengthAdjust="spacing" textLength="77.8066" x="1264.7988" y="1007.8926">Consumer A</text><rect fill="#E2E2F0" height="49.2188" rx="2.5" ry="2.5" style="stroke:#181818;stroke-width:0.5;" width="92.5791" x="1359.9917" y="32.3906"/><text fill="#000000" font-family="sans-serif" font-size="14" lengthAdjust="spacing" textLength="78.5791" x="1366.9917" y="53.9238">Downstream</text><text fill="#000000" font-family="sans-serif" font-size="14" lengthAdjust="spacing" textLength="77.8066" x="1367.3779" y="71.5332">Consumer B</text><rect fill="#E2E2F0" height="49.2188" rx="2.5" ry="2.5" style="stroke:#181818;stroke-width:0.5;" width="92.5791" x="1359.9917" y="968.75"/><text fill="#000000" font-family="sans-serif" font-size="14" lengthAdjust="spacing" textLength="78.5791" x="1366.9917" y="990.2832">Downstream</text><text fill="#000000" font-family="sans-serif" font-size="14" lengthAdjust="spacing" textLength="77.8066" x="1367.3779" y="1007.8926">Consumer B</text><rect fill="#E2E2F0" height="31.6094" rx="2.5" ry="2.5" style="stroke:#181818;stroke-width:0.5;" width="123.7168" x="1462.5708" y="50"/><text fill="#000000" font-family="sans-serif" font-size="14" lengthAdjust="spacing" textLength="109.7168" x="1469.5708" y="71.5332">NatsOutboxRelay</text><rect fill="#E2E2F0" height="31.6094" rx="2.5" ry="2.5" style="stroke:#181818;stroke-width:0.5;" width="123.7168" x="1462.5708" y="968.75"/><text fill="#000000" font-family="sans-serif" font-size="14" lengthAdjust="spacing" textLength="109.7168" x="1469.5708" y="990.2832">NatsOutboxRelay</text><polygon fill="#181818" points="189.6245,110.9609,199.6245,114.9609,189.6245,118.9609,193.6245,114.9609" style="stroke:#181818;stroke-width:1;"/><line style="stroke:#181818;stroke-width:1;" x1="25.8965" x2="195.6245" y1="114.9609" y2="114.9609"/><text fill="#000000" font-family="sans-serif" font-size="13" lengthAdjust="spacing" textLength="151.728" x="32.8965" y="110.1045">POST /api/v1/reservations</text><path d="M123.9316,129.9609 L328.9688,129.9609 L328.9688,138.3125 L318.9688,148.3125 L123.9316,148.3125 L123.9316,129.9609 " fill="#EEEEEE" style="stroke:#000000;stroke-width:1.5;"/><rect fill="none" height="319.8672" style="stroke:#000000;stroke-width:1.5;" width="1215.3745" x="123.9316" y="129.9609"/><text fill="#000000" font-family="sans-serif" font-size="13" font-weight="bold" lengthAdjust="spacing" textLength="160.0371" x="138.9316" y="144.4561">@Transactional boundary</text><polygon fill="#181818" points="397.4971,166.6641,407.4971,170.6641,397.4971,174.6641,401.4971,170.6641" style="stroke:#181818;stroke-width:1;"/><line style="stroke:#181818;stroke-width:1;" x1="201.6245" x2="403.4971" y1="170.6641" y2="170.6641"/><text fill="#000000" font-family="sans-serif" font-size="13" lengthAdjust="spacing" textLength="183.8726" x="208.6245" y="165.8076">save(ReservationEntity + items)</text><polygon fill="#181818" points="581.7998,197.0156,591.7998,201.0156,581.7998,205.0156,585.7998,201.0156" style="stroke:#181818;stroke-width:1;"/><line style="stroke:#181818;stroke-width:1;" x1="201.6245" x2="587.7998" y1="201.0156" y2="201.0156"/><text fill="#000000" font-family="sans-serif" font-size="13" lengthAdjust="spacing" textLength="81.6563" x="208.6245" y="196.1592">publish(event)</text><polygon fill="#181818" points="751.3198,227.3672,761.3198,231.3672,751.3198,235.3672,755.3198,231.3672" style="stroke:#181818;stroke-width:1;"/><line style="stroke:#181818;stroke-width:1;" x1="593.7998" x2="757.3198" y1="231.3672" y2="231.3672"/><text fill="#000000" font-family="sans-serif" font-size="13" lengthAdjust="spacing" textLength="54.9199" x="600.7998" y="226.5107">on(event)</text><polygon fill="#181818" points="420.4971,257.7188,410.4971,261.7188,420.4971,265.7188,416.4971,261.7188" style="stroke:#181818;stroke-width:1;"/><line style="stroke:#181818;stroke-width:1;" x1="414.4971" x2="762.3198" y1="261.7188" y2="261.7188"/><text fill="#000000" font-family="sans-serif" font-size="13" lengthAdjust="spacing" textLength="171.2407" x="426.4971" y="256.8623">save(ReservationEventEntity)</text><polygon fill="#181818" points="904.1089,288.0703,914.1089,292.0703,904.1089,296.0703,908.1089,292.0703" style="stroke:#181818;stroke-width:1;"/><line style="stroke:#181818;stroke-width:1;" x1="593.7998" x2="910.1089" y1="292.0703" y2="292.0703"/><text fill="#000000" font-family="sans-serif" font-size="13" lengthAdjust="spacing" textLength="54.9199" x="600.7998" y="287.2139">on(event)</text><path d="M921,305.0703 L921,331.0703 L1155,331.0703 L1155,315.0703 L1145,305.0703 L921,305.0703 " fill="#FEFFDD" style="stroke:#181818;stroke-width:0.5;"/><path d="M1145,305.0703 L1145,315.0703 L1155,315.0703 L1145,305.0703 " fill="#FEFFDD" style="stroke:#181818;stroke-width:0.5;"/><text fill="#000000" font-family="sans-serif" font-size="13" lengthAdjust="spacing" textLength="213.8716" x="927" y="323.5654">catches IOException &#8212; never throws</text><polygon fill="#181818" points="1154.2886,371.125,1164.2886,375.125,1154.2886,379.125,1158.2886,375.125" style="stroke:#181818;stroke-width:1;"/><line style="stroke:#181818;stroke-width:1;" x1="916.1089" x2="1160.2886" y1="375.125" y2="375.125"/><text fill="#000000" font-family="sans-serif" font-size="13" lengthAdjust="spacing" textLength="202.3315" x="923.1089" y="353.917">jetStream.publish(subject, payload,</text><text fill="#000000" font-family="sans-serif" font-size="13" lengthAdjust="spacing" textLength="218.9561" x="930.3325" y="370.2686">messageId=reservationId+eventType)</text><polygon fill="#181818" points="927.1089,401.4766,917.1089,405.4766,927.1089,409.4766,923.1089,405.4766" style="stroke:#181818;stroke-width:1;"/><line style="stroke:#181818;stroke-width:1;stroke-dasharray:2.0,2.0;" x1="921.1089" x2="1165.2886" y1="405.4766" y2="405.4766"/><text fill="#000000" font-family="sans-serif" font-size="13" lengthAdjust="spacing" textLength="64.3081" x="933.1089" y="400.6201">PublishAck</text><path d="M1171,418.4766 L1171,444.4766 L1329,444.4766 L1329,428.4766 L1319,418.4766 L1171,418.4766 " fill="#FEFFDD" style="stroke:#181818;stroke-width:0.5;"/><path d="M1319,418.4766 L1319,428.4766 L1329,428.4766 L1319,418.4766 " fill="#FEFFDD" style="stroke:#181818;stroke-width:0.5;"/><text fill="#000000" font-family="sans-serif" font-size="13" lengthAdjust="spacing" textLength="137.3062" x="1177" y="436.9717">2-minute dedup window</text><polygon fill="#181818" points="212.6245,475.1797,202.6245,479.1797,212.6245,483.1797,208.6245,479.1797" style="stroke:#181818;stroke-width:1;"/><line style="stroke:#181818;stroke-width:1;stroke-dasharray:2.0,2.0;" x1="206.6245" x2="408.4971" y1="479.1797" y2="479.1797"/><text fill="#000000" font-family="sans-serif" font-size="13" lengthAdjust="spacing" textLength="130.0317" x="218.6245" y="474.3232">commit (all-or-nothing)</text><polygon fill="#181818" points="36.8965,505.5313,26.8965,509.5313,36.8965,513.5313,32.8965,509.5313" style="stroke:#181818;stroke-width:1;"/><line style="stroke:#181818;stroke-width:1;stroke-dasharray:2.0,2.0;" x1="30.8965" x2="200.6245" y1="509.5313" y2="509.5313"/><text fill="#000000" font-family="sans-serif" font-size="13" lengthAdjust="spacing" textLength="71.5508" x="42.8965" y="504.6748">201 Created</text><rect fill="#EEEEEE" height="3" style="stroke:#EEEEEE;stroke-width:1;" width="1591.2876" x="0" y="563.707"/><line style="stroke:#000000;stroke-width:1;" x1="0" x2="1591.2876" y1="563.707" y2="563.707"/><line style="stroke:#000000;stroke-width:1;" x1="0" x2="1591.2876" y1="566.707" y2="566.707"/><rect fill="#EEEEEE" height="24.3516" style="stroke:#000000;stroke-width:2;" width="272.6226" x="659.3325" y="552.5313"/><text fill="#000000" font-family="sans-serif" font-size="13" font-weight="bold" lengthAdjust="spacing" textLength="255.0107" x="665.3325" y="570.0264">After commit (separate consumer thread)</text><polygon fill="#181818" points="1291.7021,605.2344,1301.7021,609.2344,1291.7021,613.2344,1295.7021,609.2344" style="stroke:#181818;stroke-width:1;"/><line style="stroke:#181818;stroke-width:1;" x1="1166.2886" x2="1297.7021" y1="609.2344" y2="609.2344"/><text fill="#000000" font-family="sans-serif" font-size="13" lengthAdjust="spacing" textLength="113.4136" x="1173.2886" y="604.3779">deliver (AckExplicit)</text><polygon fill="#181818" points="1177.2886,635.5859,1167.2886,639.5859,1177.2886,643.5859,1173.2886,639.5859" style="stroke:#181818;stroke-width:1;"/><line style="stroke:#181818;stroke-width:1;stroke-dasharray:2.0,2.0;" x1="1171.2886" x2="1302.7021" y1="639.5859" y2="639.5859"/><text fill="#000000" font-family="sans-serif" font-size="13" lengthAdjust="spacing" textLength="26.73" x="1183.2886" y="634.7295">ACK</text><polygon fill="#181818" points="1394.2813,665.9375,1404.2813,669.9375,1394.2813,673.9375,1398.2813,669.9375" style="stroke:#181818;stroke-width:1;"/><line style="stroke:#181818;stroke-width:1;" x1="1166.2886" x2="1400.2813" y1="669.9375" y2="669.9375"/><text fill="#000000" font-family="sans-serif" font-size="13" lengthAdjust="spacing" textLength="113.4136" x="1173.2886" y="665.0811">deliver (AckExplicit)</text><polygon fill="#181818" points="1177.2886,696.2891,1167.2886,700.2891,1177.2886,704.2891,1173.2886,700.2891" style="stroke:#181818;stroke-width:1;"/><line style="stroke:#181818;stroke-width:1;stroke-dasharray:2.0,2.0;" x1="1171.2886" x2="1405.2813" y1="700.2891" y2="700.2891"/><text fill="#000000" font-family="sans-serif" font-size="13" lengthAdjust="spacing" textLength="26.73" x="1183.2886" y="695.4326">ACK</text><rect fill="#EEEEEE" height="3" style="stroke:#EEEEEE;stroke-width:1;" width="1591.2876" x="0" y="754.4648"/><line style="stroke:#000000;stroke-width:1;" x1="0" x2="1591.2876" y1="754.4648" y2="754.4648"/><line style="stroke:#000000;stroke-width:1;" x1="0" x2="1591.2876" y1="757.4648" y2="757.4648"/><rect fill="#EEEEEE" height="24.3516" style="stroke:#000000;stroke-width:2;" width="250.1963" x="670.5457" y="743.2891"/><text fill="#000000" font-family="sans-serif" font-size="13" font-weight="bold" lengthAdjust="spacing" textLength="232.5845" x="676.5457" y="760.7842">Outbox Recovery (if NATS was down)</text><polygon fill="#181818" points="420.4971,795.9922,410.4971,799.9922,420.4971,803.9922,416.4971,799.9922" style="stroke:#181818;stroke-width:1;"/><line style="stroke:#181818;stroke-width:1;" x1="414.4971" x2="1523.4292" y1="799.9922" y2="799.9922"/><text fill="#000000" font-family="sans-serif" font-size="13" lengthAdjust="spacing" textLength="183.5361" x="426.4971" y="795.1357">findTop50ByPublishedAtIsNull()</text><polygon fill="#181818" points="1512.4292,826.3438,1522.4292,830.3438,1512.4292,834.3438,1516.4292,830.3438" style="stroke:#181818;stroke-width:1;"/><line style="stroke:#181818;stroke-width:1;stroke-dasharray:2.0,2.0;" x1="409.4971" x2="1518.4292" y1="830.3438" y2="830.3438"/><text fill="#000000" font-family="sans-serif" font-size="13" lengthAdjust="spacing" textLength="112.0298" x="416.4971" y="825.4873">unpublished events</text><polygon fill="#181818" points="927.1089,856.6953,917.1089,860.6953,927.1089,864.6953,923.1089,860.6953" style="stroke:#181818;stroke-width:1;"/><line style="stroke:#181818;stroke-width:1;" x1="921.1089" x2="1523.4292" y1="860.6953" y2="860.6953"/><text fill="#000000" font-family="sans-serif" font-size="13" lengthAdjust="spacing" textLength="120.3135" x="933.1089" y="855.8389">reconstruct + publish</text><polygon fill="#181818" points="1154.2886,887.0469,1164.2886,891.0469,1154.2886,895.0469,1158.2886,891.0469" style="stroke:#181818;stroke-width:1;"/><line style="stroke:#181818;stroke-width:1;" x1="916.1089" x2="1160.2886" y1="891.0469" y2="891.0469"/><text fill="#000000" font-family="sans-serif" font-size="13" lengthAdjust="spacing" textLength="135.0972" x="923.1089" y="886.1904">jetStream.publish(retry)</text><polygon fill="#181818" points="927.1089,917.3984,917.1089,921.3984,927.1089,925.3984,923.1089,921.3984" style="stroke:#181818;stroke-width:1;"/><line style="stroke:#181818;stroke-width:1;stroke-dasharray:2.0,2.0;" x1="921.1089" x2="1165.2886" y1="921.3984" y2="921.3984"/><text fill="#000000" font-family="sans-serif" font-size="13" lengthAdjust="spacing" textLength="64.3081" x="933.1089" y="916.542">PublishAck</text><polygon fill="#181818" points="420.4971,947.75,410.4971,951.75,420.4971,955.75,416.4971,951.75" style="stroke:#181818;stroke-width:1;"/><line style="stroke:#181818;stroke-width:1;" x1="414.4971" x2="1523.4292" y1="951.75" y2="951.75"/><text fill="#000000" font-family="sans-serif" font-size="13" lengthAdjust="spacing" textLength="141.2861" x="426.4971" y="946.8936">SET published_at = now</text><!--SRC=[ZLH1Rjim4Bpp5OkSR2HkaWAz671HsTN1Bc0Raj1JW8AcDZPJYHH8oew07Fg8lh0lwPAI73jfWfuiSsTdXxCZSU6qWLaXKJbMSUEaa1LN3YuIj6Zst4cjKdgG0Y-0MqZIDs6BYYTOQIk9icd1oJbuhjP62xGstjEyTRqffDsX2TZvEbwVewCwbouWqtfZXP6R3XeAvzWbT_yYNKRP2xqBTAapoCixbSHfd7oFilbgcGRquWNsgpuesu5dMjcwH0DHWFg_qN-WfqVqbB7MPXXz9XV7i5wb6LppIbxlRw_DiusMROskA_YI6Qui5_wC5x3HjSgvQHXGT-18nc3v7WSdAuYLaww1Iv0EIpiyOhsvOwXQRmReZV95V-pBmT0nQFLS2aTlZl6eTjOfZNVxd4LfXs3aTkT0ttTrmPtO8Iry5JyAh3mV_Fdr6nHr6N0xem-MMZtOaowevQ5VseV-2hRUFA1mLr3nfj0ylxfJ02KbYszndazEx9pdbq5ErbJe9Is8zQYrIqiaVhuIw-T-79LIrNIQOquREKYLwmD3bRCa2In-ZqAN9Laru4KnqcP4B3kfjaF6adPIktKYkxc56Lt2OSxOqzCJcqmWkdTqvvx18WMAwdJGnOVSG9uFOJ9XR17i2C4Raw12Uhi693r-h0fA8HaUYc6eLn_DlfqqJTzhcfurzUfMjTleHqXGQ6fhO23R7SA1CarEg5ROgnUnxKkmuDrdm3-H7_wdZzGzUPdfwjFDjEbVsJnoSxkiYs8mFFhhMyPGgwh7G5YcVIPh5sdGU-PCBHoblqEpzpDaq1dAxrk1E9ERnXaSDVpW3YOKbyDV]--></g></svg>