<svg xmlns="http://www.w3.org/2000/svg" xmlns:xlink="http://www.w3.org/1999/xlink" contentStyleType="text/css" height="656px" preserveAspectRatio="none" style="width:1330px;height:656px;background:#FFFFFF;" version="1.1" viewBox="0 0 1330 656" width="1330px" zoomAndPan="magnify"><defs/><g><line style="stroke:#181818;stroke-width:0.5;stroke-dasharray:5.0,5.0;" x1="25" x2="25" y1="82.6094" y2="574.2344"/><line style="stroke:#181818;stroke-width:0.5;stroke-dasharray:5.0,5.0;" x1="200.9282" x2="200.9282" y1="82.6094" y2="574.2344"/><line style="stroke:#181818;stroke-width:0.5;stroke-dasharray:5.0,5.0;" x1="356.4106" x2="356.4106" y1="82.6094" y2="574.2344"/><line style="stroke:#181818;stroke-width:0.5;stroke-dasharray:5.0,5.0;" x1="621.752" x2="621.752" y1="82.6094" y2="574.2344"/><line style="stroke:#181818;stroke-width:0.5;stroke-dasharray:5.0,5.0;" x1="759.1309" x2="759.1309" y1="82.6094" y2="574.2344"/><line style="stroke:#181818;stroke-width:0.5;stroke-dasharray:5.0,5.0;" x1="936.6138" x2="936.6138" y1="82.6094" y2="574.2344"/><line style="stroke:#181818;stroke-width:0.5;stroke-dasharray:5.0,5.0;" x1="1116.689" x2="1116.689" y1="82.6094" y2="574.2344"/><line style="stroke:#181818;stroke-width:0.5;stroke-dasharray:5.0,5.0;" x1="1269.8813" x2="1269.8813" y1="82.6094" y2="574.2344"/><text fill="#000000" font-family="sans-serif" font-size="14" lengthAdjust="spacing" textLength="35.793" x="5" y="79.5332">Client</text><ellipse cx="25.8965" cy="13.5" fill="#E2E2F0" rx="8" ry="8" style="stroke:#181818;stroke-width:0.5;"/><path d="M25.8965,21.5 L25.8965,48.5 M12.8965,29.5 L38.8965,29.5 M25.8965,48.5 L12.8965,63.5 M25.8965,48.5 L38.8965,63.5 " fill="none" style="stroke:#181818;stroke-width:0.5;"/><text fill="#000000" font-family="sans-serif" font-size="14" lengthAdjust="spacing" textLength="35.793" x="5" y="587.7676">Client</text><ellipse cx="25.8965" cy="599.3438" fill="#E2E2F0" rx="8" ry="8" style="stroke:#181818;stroke-width:0.5;"/><path d="M25.8965,607.3438 L25.8965,634.3438 M12.8965,615.3438 L38.8965,615.3438 M25.8965,634.3438 L12.8965,649.3438 M25.8965,634.3438 L38.8965,649.3438 " fill="none" style="stroke:#181818;stroke-width:0.5;"/><rect fill="#E2E2F0" height="31.6094" rx="2.5" ry="2.5" style="stroke:#181818;stroke-width:0.5;" width="149.3926" x="126.9282" y="50"/><text fill="#000000" font-family="sans-serif" font-size="14" lengthAdjust="spacing" textLength="135.3926" x="133.9282" y="71.5332">ReservationController</text><rect fill="#E2E2F0" height="31.6094" rx="2.5" ry="2.5" style="stroke:#181818;stroke-width:0.5;" width="149.3926" x="126.9282" y="573.2344"/><text fill="#000000" font-family="sans-serif" font-size="14" lengthAdjust="spacing" textLength="135.3926" x="133.9282" y="594.7676">ReservationController</text><rect fill="#E2E2F0" height="31.6094" rx="2.5" ry="2.5" style="stroke:#181818;stroke-width:0.5;" width="135.3857" x="289.4106" y="50"/><text fill="#000000" font-family="sans-serif" font-size="14" lengthAdjust="spacing" textLength="121.3857" x="296.4106" y="71.5332">ReservationService</text><rect fill="#E2E2F0" height="31.6094" rx="2.5" ry="2.5" style="stroke:#181818;stroke-width:0.5;" width="135.3857" x="289.4106" y="573.2344"/><text fill="#000000" font-family="sans-serif" font-size="14" lengthAdjust="spacing" textLength="121.3857" x="296.4106" y="594.7676">ReservationService</text><rect fill="#E2E2F0" height="31.6094" rx="2.5" ry="2.5" style="stroke:#181818;stroke-width:0.5;" width="135.3789" x="554.752" y="50"/><text fill="#000000" font-family="sans-serif" font-size="14" lengthAdjust="spacing" textLength="121.3789" x="561.752" y="71.5332">ReservationFactory</text><rect fill="#E2E2F0" height="31.6094" rx="2.5" ry="2.5" style="stroke:#181818;stroke-width:0.5;" width="135.3789" x="554.752" y="573.2344"/><text fill="#000000" font-family="sans-serif" font-size="14" lengthAdjust="spacing" textLength="121.3789" x="561.752" y="594.7676">ReservationFactory</text><rect fill="#E2E2F0" height="31.6094" rx="2.5" ry="2.5" style="stroke:#181818;stroke-width:0.5;" width="118.2686" x="700.1309" y="50"/><text fill="#000000" font-family="sans-serif" font-size="14" lengthAdjust="spacing" textLength="104.2686" x="707.1309" y="71.5332">InventoryService</text><rect fill="#E2E2F0" height="31.6094" rx="2.5" ry="2.5" style="stroke:#181818;stroke-width:0.5;" width="118.2686" x="700.1309" y="573.2344"/><text fill="#000000" font-family="sans-serif" font-size="14" lengthAdjust="spacing" textLength="104.2686" x="707.1309" y="594.7676">InventoryService</text><rect fill="#E2E2F0" height="31.6094" rx="2.5" ry="2.5" style="stroke:#181818;stroke-width:0.5;" width="161.0752" x="856.6138" y="50"/><text fill="#000000" font-family="sans-serif" font-size="14" lengthAdjust="spacing" textLength="147.0752" x="863.6138" y="71.5332">InventoryJpaRepository</text><rect fill="#E2E2F0" height="31.6094" rx="2.5" ry="2.5" style="stroke:#181818;stroke-width:0.5;" width="161.0752" x="856.6138" y="573.2344"/><text fill="#000000" font-family="sans-serif" font-size="14" lengthAdjust="spacing" textLength="147.0752" x="863.6138" y="594.7676">InventoryJpaRepository</text><rect fill="#E2E2F0" height="31.6094" rx="2.5" ry="2.5" style="stroke:#181818;stroke-width:0.5;" width="178.1924" x="1027.689" y="50"/><text fill="#000000" font-family="sans-serif" font-size="14" lengthAdjust="spacing" textLength="164.1924" x="1034.689" y="71.5332">ReservationJpaRepository</text><rect fill="#E2E2F0" height="31.6094" rx="2.5" ry="2.5" style="stroke:#181818;stroke-width:0.5;" width="178.1924" x="1027.689" y="573.2344"/><text fill="#000000" font-family="sans-serif" font-size="14" lengthAdjust="spacing" textLength="164.1924" x="1034.689" y="594.7676">ReservationJpaRepository</text><rect fill="#E2E2F0" height="31.6094" rx="2.5" ry="2.5" style="stroke:#181818;stroke-width:0.5;" width="108.165" x="1215.8813" y="50"/><text fill="#000000" font-family="sans-serif" font-size="14" lengthAdjust="spacing" textLength="94.165" x="1222.8813" y="71.5332">EventPublisher</text><rect fill="#E2E2F0" height="31.6094" rx="2.5" ry="2.5" style="stroke:#181818;stroke-width:0.5;" width="108.165" x="1215.8813" y="573.2344"/><text fill="#000000" font-family="sans-serif" font-size="14" lengthAdjust="spacing" textLength="94.165" x="1222.8813" y="594.7676">EventPublisher</text><polygon fill="#181818" points="189.6245,127.3125,199.6245,131.3125,189.6245,135.3125,193.6245,131.3125" style="stroke:#181818;stroke-width:1;"/><line style="stroke:#181818;stroke-width:1;" x1="25.8965" x2="195.6245" y1="131.3125" y2="131.3125"/><text fill="#000000" font-family="sans-serif" font-size="13" lengthAdjust="spacing" textLength="151.728" x="32.8965" y="110.1045">POST /api/v1/reservations</text><text fill="#000000" font-family="sans-serif" font-size="13" lengthAdjust="spacing" textLength="88.1563" x="32.8965" y="126.4561">{orderId, items}</text><polygon fill="#181818" points="345.1035,157.6641,355.1035,161.6641,345.1035,165.6641,349.1035,161.6641" style="stroke:#181818;stroke-width:1;"/><line style="stroke:#181818;stroke-width:1;" x1="201.6245" x2="351.1035" y1="161.6641" y2="161.6641"/><text fill="#000000" font-family="sans-serif" font-size="13" lengthAdjust="spacing" textLength="131.479" x="208.6245" y="156.8076">reserve(orderId, items)</text><polygon fill="#181818" points="1104.7852,188.0156,1114.7852,192.0156,1104.7852,196.0156,1108.7852,192.0156" style="stroke:#181818;stroke-width:1;"/><line style="stroke:#181818;stroke-width:1;" x1="357.1035" x2="1110.7852" y1="192.0156" y2="192.0156"/><text fill="#000000" font-family="sans-serif" font-size="13" lengthAdjust="spacing" textLength="130.0508" x="364.1035" y="187.1592">findByOrderId(orderId)</text><polygon fill="#181818" points="368.1035,218.3672,358.1035,222.3672,368.1035,226.3672,364.1035,222.3672" style="stroke:#181818;stroke-width:1;"/><line style="stroke:#181818;stroke-width:1;stroke-dasharray:2.0,2.0;" x1="362.1035" x2="1115.7852" y1="222.3672" y2="222.3672"/><text fill="#000000" font-family="sans-serif" font-size="13" lengthAdjust="spacing" textLength="35.4009" x="374.1035" y="217.5107">empty</text><polygon fill="#181818" points="610.4414,248.7188,620.4414,252.7188,610.4414,256.7188,614.4414,252.7188" style="stroke:#181818;stroke-width:1;"/><line style="stroke:#181818;stroke-width:1;" x1="357.1035" x2="616.4414" y1="252.7188" y2="252.7188"/><text fill="#000000" font-family="sans-serif" font-size="13" lengthAdjust="spacing" textLength="241.3379" x="364.1035" y="247.8623">createPendingReservation(orderId, items)</text><polygon fill="#181818" points="368.1035,279.0703,358.1035,283.0703,368.1035,287.0703,364.1035,283.0703" style="stroke:#181818;stroke-width:1;"/><line style="stroke:#181818;stroke-width:1;stroke-dasharray:2.0,2.0;" x1="362.1035" x2="621.4414" y1="283.0703" y2="283.0703"/><text fill="#000000" font-family="sans-serif" font-size="13" lengthAdjust="spacing" textLength="140.8672" x="374.1035" y="278.2139">Reservation (PENDING)</text><polygon fill="#181818" points="747.2651,309.4219,757.2651,313.4219,747.2651,317.4219,751.2651,313.4219" style="stroke:#181818;stroke-width:1;"/><line style="stroke:#181818;stroke-width:1;" x1="357.1035" x2="753.2651" y1="313.4219" y2="313.4219"/><text fill="#000000" font-family="sans-serif" font-size="13" lengthAdjust="spacing" textLength="197.9771" x="364.1035" y="308.5654">allocateStock(SkuAllocationOrder)</text><polygon fill="#181818" points="925.1514,339.7734,935.1514,343.7734,925.1514,347.7734,929.1514,343.7734" style="stroke:#181818;stroke-width:1;"/><line style="stroke:#181818;stroke-width:1;" x1="759.2651" x2="931.1514" y1="343.7734" y2="343.7734"/><text fill="#000000" font-family="sans-serif" font-size="13" lengthAdjust="spacing" textLength="153.8862" x="766.2651" y="338.917">findById(sku) / save(entity)</text><polygon fill="#181818" points="368.1035,370.125,358.1035,374.125,368.1035,378.125,364.1035,374.125" style="stroke:#181818;stroke-width:1;"/><line style="stroke:#181818;stroke-width:1;stroke-dasharray:2.0,2.0;" x1="362.1035" x2="758.2651" y1="374.125" y2="374.125"/><text fill="#000000" font-family="sans-serif" font-size="13" lengthAdjust="spacing" textLength="28.9199" x="374.1035" y="369.2686">done</text><polygon fill="#181818" points="1104.7852,400.4766,1114.7852,404.4766,1104.7852,408.4766,1108.7852,404.4766" style="stroke:#181818;stroke-width:1;"/><line style="stroke:#181818;stroke-width:1;" x1="357.1035" x2="1110.7852" y1="404.4766" y2="404.4766"/><text fill="#000000" font-family="sans-serif" font-size="13" lengthAdjust="spacing" textLength="137.998" x="364.1035" y="399.6201">save(ReservationEntity)</text><polygon fill="#181818" points="368.1035,430.8281,358.1035,434.8281,368.1035,438.8281,364.1035,434.8281" style="stroke:#181818;stroke-width:1;"/><line style="stroke:#181818;stroke-width:1;stroke-dasharray:2.0,2.0;" x1="362.1035" x2="1115.7852" y1="434.8281" y2="434.8281"/><text fill="#000000" font-family="sans-serif" font-size="13" lengthAdjust="spacing" textLength="101.8799" x="374.1035" y="429.9717">ReservationEntity</text><polygon fill="#181818" points="1257.9639,461.1797,1267.9639,465.1797,1257.9639,469.1797,1261.9639,465.1797" style="stroke:#181818;stroke-width:1;"/><line style="stroke:#181818;stroke-width:1;" x1="357.1035" x2="1263.9639" y1="465.1797" y2="465.1797"/><text fill="#000000" font-family="sans-serif" font-size="13" lengthAdjust="spacing" textLength="198.7134" x="364.1035" y="460.3232">publish(ReservationCreatedEvent)</text><polygon fill="#181818" points="368.1035,491.5313,358.1035,495.5313,368.1035,499.5313,364.1035,495.5313" style="stroke:#181818;stroke-width:1;"/><line style="stroke:#181818;stroke-width:1;stroke-dasharray:2.0,2.0;" x1="362.1035" x2="1268.9639" y1="495.5313" y2="495.5313"/><text fill="#000000" font-family="sans-serif" font-size="13" lengthAdjust="spacing" textLength="106.6025" x="374.1035" y="490.6748">logged + persisted</text><polygon fill="#181818" points="212.6245,521.8828,202.6245,525.8828,212.6245,529.8828,208.6245,525.8828" style="stroke:#181818;stroke-width:1;"/><line style="stroke:#181818;stroke-width:1;stroke-dasharray:2.0,2.0;" x1="206.6245" x2="356.1035" y1="525.8828" y2="525.8828"/><text fill="#000000" font-family="sans-serif" font-size="13" lengthAdjust="spacing" textLength="127.9053" x="218.6245" y="521.0264">ReservationResponse</text><polygon fill="#181818" points="36.8965,552.2344,26.8965,556.2344,36.8965,560.2344,32.8965,556.2344" style="stroke:#181818;stroke-width:1;"/><line style="stroke:#181818;stroke-width:1;stroke-dasharray:2.0,2.0;" x1="30.8965" x2="200.6245" y1="556.2344" y2="556.2344"/><text fill="#000000" font-family="sans-serif" font-size="13" lengthAdjust="spacing" textLength="71.5508" x="42.8965" y="551.3779">201 Created</text><!--SRC=[TP4nJyCm48Nt_8fJfqPGXJ9cG8AGe32qaSt8OfAZM4rjotOhHOZ_ZckdmQNgPlc-UtVl7ckjr53q78LD5DEMjrmnOM56qA0-CCkbAAImMlOzwXam0wIuIbBtu2q6Z5x5AdOSEmIiEiTgSN2xk6giLTChqAjY19KqVDAhoTMnbp3v1vT7sMR_qNFpDRejcoG9zu75W_EUGxEcRv0nnRF3CjD_ykPTV4lTeQwxM-0MT-Od8ONleZa44EVdH9eGwWcImoSNtTEm3lKJvm02Yr43TyeEfuugXrOZizYWwBZOH4OlXrIJHeJ1l2bNp_NgvRH5xUgixsNhLAcLxNPEj_l7yE5ulrgQr86TDdRBckq-XGmCSmRTfRWT0ZRExAJ0oAZ7eZtAiIDoUb4Tsyic1nNoYHKAVuZEnvScPJFfz7ApmGvkGA4st3Z62ur9HWhkgLo4w1DpvH1v3lTtInZLVm40]--></g></svg>