<svg xmlns="http://www.w3.org/2000/svg" xmlns:xlink="http://www.w3.org/1999/xlink" contentStyleType="text/css" height="716px" preserveAspectRatio="none" style="width:1246px;height:716px;background:#FFFFFF;" version="1.1" viewBox="0 0 1246 716" width="1246px" zoomAndPan="magnify"><defs/><g><line style="stroke:#181818;stroke-width:0.5;stroke-dasharray:5.0,5.0;" x1="25" x2="25" y1="82.6094" y2="633.9375"/><line style="stroke:#181818;stroke-width:0.5;stroke-dasharray:5.0,5.0;" x1="264.5317" x2="264.5317" y1="82.6094" y2="633.9375"/><line style="stroke:#181818;stroke-width:0.5;stroke-dasharray:5.0,5.0;" x1="416.9243" x2="416.9243" y1="82.6094" y2="633.9375"/><line style="stroke:#181818;stroke-width:0.5;stroke-dasharray:5.0,5.0;" x1="614.0503" x2="614.0503" y1="82.6094" y2="633.9375"/><line style="stroke:#181818;stroke-width:0.5;stroke-dasharray:5.0,5.0;" x1="772.2427" x2="772.2427" y1="82.6094" y2="633.9375"/><line style="stroke:#181818;stroke-width:0.5;stroke-dasharray:5.0,5.0;" x1="942.4639" x2="942.4639" y1="82.6094" y2="633.9375"/><line style="stroke:#181818;stroke-width:0.5;stroke-dasharray:5.0,5.0;" x1="1077.5391" x2="1077.5391" y1="82.6094" y2="633.9375"/><line style="stroke:#181818;stroke-width:0.5;stroke-dasharray:5.0,5.0;" x1="1186.2422" x2="1186.2422" y1="82.6094" y2="633.9375"/><text fill="#000000" font-family="sans-serif" font-size="14" lengthAdjust="spacing" textLength="35.793" x="5" y="79.5332">Client</text><ellipse cx="25.8965" cy="13.5" fill="#E2E2F0" rx="8" ry="8" style="stroke:#181818;stroke-width:0.5;"/><path d="M25.8965,21.5 L25.8965,48.5 M12.8965,29.5 L38.8965,29.5 M25.8965,48.5 L12.8965,63.5 M25.8965,48.5 L38.8965,63.5 " fill="none" style="stroke:#181818;stroke-width:0.5;"/><text fill="#000000" font-family="sans-serif" font-size="14" lengthAdjust="spacing" textLength="35.793" x="5" y="647.4707">Client</text><ellipse cx="25.8965" cy="659.0469" fill="#E2E2F0" rx="8" ry="8" style="stroke:#181818;stroke-width:0.5;"/><path d="M25.8965,667.0469 L25.8965,694.0469 M12.8965,675.0469 L38.8965,675.0469 M25.8965,694.0469 L12.8965,709.0469 M25.8965,694.0469 L38.8965,709.0469 " fill="none" style="stroke:#181818;stroke-width:0.5;"/><rect fill="#E2E2F0" height="31.6094" rx="2.5" ry="2.5" style="stroke:#181818;stroke-width:0.5;" width="149.3926" x="190.5317" y="50"/><text fill="#000000" font-family="sans-serif" font-size="14" lengthAdjust="spacing" textLength="135.3926" x="197.5317" y="71.5332">ReservationController</text><rect fill="#E2E2F0" height="31.6094" rx="2.5" ry="2.5" style="stroke:#181818;stroke-width:0.5;" width="149.3926" x="190.5317" y="632.9375"/><text fill="#000000" font-family="sans-serif" font-size="14" lengthAdjust="spacing" textLength="135.3926" x="197.5317" y="654.4707">ReservationController</text><rect fill="#E2E2F0" height="31.6094" rx="2.5" ry="2.5" style="stroke:#181818;stroke-width:0.5;" width="135.3857" x="349.9243" y="50"/><text fill="#000000" font-family="sans-serif" font-size="14" lengthAdjust="spacing" textLength="121.3857" x="356.9243" y="71.5332">ReservationService</text><rect fill="#E2E2F0" height="31.6094" rx="2.5" ry="2.5" style="stroke:#181818;stroke-width:0.5;" width="135.3857" x="349.9243" y="632.9375"/><text fill="#000000" font-family="sans-serif" font-size="14" lengthAdjust="spacing" textLength="121.3857" x="356.9243" y="654.4707">ReservationService</text><rect fill="#E2E2F0" height="31.6094" rx="2.5" ry="2.5" style="stroke:#181818;stroke-width:0.5;" width="178.1924" x="525.0503" y="50"/><text fill="#000000" font-family="sans-serif" font-size="14" lengthAdjust="spacing" textLength="164.1924" x="532.0503" y="71.5332">ReservationJpaRepository</text><rect fill="#E2E2F0" height="31.6094" rx="2.5" ry="2.5" style="stroke:#181818;stroke-width:0.5;" width="178.1924" x="525.0503" y="632.9375"/><text fill="#000000" font-family="sans-serif" font-size="14" lengthAdjust="spacing" textLength="164.1924" x="532.0503" y="654.4707">ReservationJpaRepository</text><rect fill="#E2E2F0" height="31.6094" rx="2.5" ry="2.5" style="stroke:#181818;stroke-width:0.5;" width="118.2686" x="713.2427" y="50"/><text fill="#000000" font-family="sans-serif" font-size="14" lengthAdjust="spacing" textLength="104.2686" x="720.2427" y="71.5332">InventoryService</text><rect fill="#E2E2F0" height="31.6094" rx="2.5" ry="2.5" style="stroke:#181818;stroke-width:0.5;" width="118.2686" x="713.2427" y="632.9375"/><text fill="#000000" font-family="sans-serif" font-size="14" lengthAdjust="spacing" textLength="104.2686" x="720.2427" y="654.4707">InventoryService</text><rect fill="#E2E2F0" height="31.6094" rx="2.5" ry="2.5" style="stroke:#181818;stroke-width:0.5;" width="161.0752" x="862.4639" y="50"/><text fill="#000000" font-family="sans-serif" font-size="14" lengthAdjust="spacing" textLength="147.0752" x="869.4639" y="71.5332">InventoryJpaRepository</text><rect fill="#E2E2F0" height="31.6094" rx="2.5" ry="2.5" style="stroke:#181818;stroke-width:0.5;" width="161.0752" x="862.4639" y="632.9375"/><text fill="#000000" font-family="sans-serif" font-size="14" lengthAdjust="spacing" textLength="147.0752" x="869.4639" y="654.4707">InventoryJpaRepository</text><rect fill="#E2E2F0" height="31.6094" rx="2.5" ry="2.5" style="stroke:#181818;stroke-width:0.5;" width="88.7031" x="1033.5391" y="50"/><text fill="#000000" font-family="sans-serif" font-size="14" lengthAdjust="spacing" textLength="74.7031" x="1040.5391" y="71.5332">Reservation</text><rect fill="#E2E2F0" height="31.6094" rx="2.5" ry="2.5" style="stroke:#181818;stroke-width:0.5;" width="88.7031" x="1033.5391" y="632.9375"/><text fill="#000000" font-family="sans-serif" font-size="14" lengthAdjust="spacing" textLength="74.7031" x="1040.5391" y="654.4707">Reservation</text><rect fill="#E2E2F0" height="31.6094" rx="2.5" ry="2.5" style="stroke:#181818;stroke-width:0.5;" width="108.165" x="1132.2422" y="50"/><text fill="#000000" font-family="sans-serif" font-size="14" lengthAdjust="spacing" textLength="94.165" x="1139.2422" y="71.5332">EventPublisher</text><rect fill="#E2E2F0" height="31.6094" rx="2.5" ry="2.5" style="stroke:#181818;stroke-width:0.5;" width="108.165" x="1132.2422" y="632.9375"/><text fill="#000000" font-family="sans-serif" font-size="14" lengthAdjust="spacing" textLength="94.165" x="1139.2422" y="654.4707">EventPublisher</text><polygon fill="#181818" points="253.228,110.9609,263.228,114.9609,253.228,118.9609,257.228,114.9609" style="stroke:#181818;stroke-width:1;"/><line style="stroke:#181818;stroke-width:1;" x1="25.8965" x2="259.228" y1="114.9609" y2="114.9609"/><text fill="#000000" font-family="sans-serif" font-size="13" lengthAdjust="spacing" textLength="215.3315" x="32.8965" y="110.1045">POST /api/v1/reservations/{id}/cancel</text><polygon fill="#181818" points="405.6172,141.3125,415.6172,145.3125,405.6172,149.3125,409.6172,145.3125" style="stroke:#181818;stroke-width:1;"/><line style="stroke:#181818;stroke-width:1;" x1="265.228" x2="411.6172" y1="145.3125" y2="145.3125"/><text fill="#000000" font-family="sans-serif" font-size="13" lengthAdjust="spacing" textLength="56.3545" x="272.228" y="140.4561">cancel(id)</text><polygon fill="#181818" points="602.1465,188.0156,612.1465,192.0156,602.1465,196.0156,606.1465,192.0156" style="stroke:#181818;stroke-width:1;"/><line style="stroke:#181818;stroke-width:1;" x1="417.6172" x2="608.1465" y1="192.0156" y2="192.0156"/><text fill="#000000" font-family="sans-serif" font-size="13" lengthAdjust="spacing" textLength="119.209" x="424.6172" y="170.8076">findByIdWithLock(id)</text><text fill="#000000" font-family="sans-serif" font-size="13" lengthAdjust="spacing" textLength="146.6245" x="424.6172" y="187.1592">(SELECT FOR UPDATE)</text><polygon fill="#181818" points="428.6172,218.3672,418.6172,222.3672,428.6172,226.3672,424.6172,222.3672" style="stroke:#181818;stroke-width:1;"/><line style="stroke:#181818;stroke-width:1;stroke-dasharray:2.0,2.0;" x1="422.6172" x2="613.1465" y1="222.3672" y2="222.3672"/><text fill="#000000" font-family="sans-serif" font-size="13" lengthAdjust="spacing" textLength="101.8799" x="434.6172" y="217.5107">ReservationEntity</text><line style="stroke:#181818;stroke-width:1;" x1="417.6172" x2="459.6172" y1="252.7188" y2="252.7188"/><line style="stroke:#181818;stroke-width:1;" x1="459.6172" x2="459.6172" y1="252.7188" y2="265.7188"/><line style="stroke:#181818;stroke-width:1;" x1="418.6172" x2="459.6172" y1="265.7188" y2="265.7188"/><polygon fill="#181818" points="428.6172,261.7188,418.6172,265.7188,428.6172,269.7188,424.6172,265.7188" style="stroke:#181818;stroke-width:1;"/><text fill="#000000" font-family="sans-serif" font-size="13" lengthAdjust="spacing" textLength="95.3672" x="424.6172" y="247.8623">toDomain(entity)</text><polygon fill="#181818" points="1065.8906,292.0703,1075.8906,296.0703,1065.8906,300.0703,1069.8906,296.0703" style="stroke:#181818;stroke-width:1;"/><line style="stroke:#181818;stroke-width:1;" x1="417.6172" x2="1071.8906" y1="296.0703" y2="296.0703"/><text fill="#000000" font-family="sans-serif" font-size="13" lengthAdjust="spacing" textLength="46.2363" x="424.6172" y="291.2139">cancel()</text><polygon fill="#181818" points="428.6172,322.4219,418.6172,326.4219,428.6172,330.4219,424.6172,326.4219" style="stroke:#181818;stroke-width:1;"/><line style="stroke:#181818;stroke-width:1;stroke-dasharray:2.0,2.0;" x1="422.6172" x2="1076.8906" y1="326.4219" y2="326.4219"/><text fill="#000000" font-family="sans-serif" font-size="13" lengthAdjust="spacing" textLength="121.0244" x="434.6172" y="321.5654">state = CANCELLED</text><polygon fill="#181818" points="760.377,352.7734,770.377,356.7734,760.377,360.7734,764.377,356.7734" style="stroke:#181818;stroke-width:1;"/><line style="stroke:#181818;stroke-width:1;" x1="417.6172" x2="766.377" y1="356.7734" y2="356.7734"/><text fill="#000000" font-family="sans-serif" font-size="13" lengthAdjust="spacing" textLength="114.8672" x="424.6172" y="351.917">releaseStock(items)</text><polygon fill="#181818" points="931.0015,399.4766,941.0015,403.4766,931.0015,407.4766,935.0015,403.4766" style="stroke:#181818;stroke-width:1;"/><line style="stroke:#181818;stroke-width:1;" x1="772.377" x2="937.0015" y1="403.4766" y2="403.4766"/><text fill="#000000" font-family="sans-serif" font-size="13" lengthAdjust="spacing" textLength="140.8799" x="779.377" y="382.2686">findBySkuWithLock(sku)</text><text fill="#000000" font-family="sans-serif" font-size="13" lengthAdjust="spacing" textLength="146.6245" x="779.377" y="398.6201">(SELECT FOR UPDATE)</text><polygon fill="#181818" points="931.0015,429.8281,941.0015,433.8281,931.0015,437.8281,935.0015,433.8281" style="stroke:#181818;stroke-width:1;"/><line style="stroke:#181818;stroke-width:1;" x1="772.377" x2="937.0015" y1="433.8281" y2="433.8281"/><text fill="#000000" font-family="sans-serif" font-size="13" lengthAdjust="spacing" textLength="67.1899" x="779.377" y="428.9717">save(entity)</text><polygon fill="#181818" points="428.6172,460.1797,418.6172,464.1797,428.6172,468.1797,424.6172,464.1797" style="stroke:#181818;stroke-width:1;"/><line style="stroke:#181818;stroke-width:1;stroke-dasharray:2.0,2.0;" x1="422.6172" x2="771.377" y1="464.1797" y2="464.1797"/><text fill="#000000" font-family="sans-serif" font-size="13" lengthAdjust="spacing" textLength="28.9199" x="434.6172" y="459.3232">done</text><polygon fill="#181818" points="602.1465,490.5313,612.1465,494.5313,602.1465,498.5313,606.1465,494.5313" style="stroke:#181818;stroke-width:1;"/><line style="stroke:#181818;stroke-width:1;" x1="417.6172" x2="608.1465" y1="494.5313" y2="494.5313"/><text fill="#000000" font-family="sans-serif" font-size="13" lengthAdjust="spacing" textLength="172.5293" x="424.6172" y="489.6748">updateStatus("CANCELLED")</text><polygon fill="#181818" points="1174.3247,520.8828,1184.3247,524.8828,1174.3247,528.8828,1178.3247,524.8828" style="stroke:#181818;stroke-width:1;"/><line style="stroke:#181818;stroke-width:1;" x1="417.6172" x2="1180.3247" y1="524.8828" y2="524.8828"/><text fill="#000000" font-family="sans-serif" font-size="13" lengthAdjust="spacing" textLength="210.2788" x="424.6172" y="520.0264">publish(ReservationCancelledEvent)</text><polygon fill="#181818" points="428.6172,551.2344,418.6172,555.2344,428.6172,559.2344,424.6172,555.2344" style="stroke:#181818;stroke-width:1;"/><line style="stroke:#181818;stroke-width:1;stroke-dasharray:2.0,2.0;" x1="422.6172" x2="1185.3247" y1="555.2344" y2="555.2344"/><text fill="#000000" font-family="sans-serif" font-size="13" lengthAdjust="spacing" textLength="106.6025" x="434.6172" y="550.3779">logged + persisted</text><polygon fill="#181818" points="276.228,581.5859,266.228,585.5859,276.228,589.5859,272.228,585.5859" style="stroke:#181818;stroke-width:1;"/><line style="stroke:#181818;stroke-width:1;stroke-dasharray:2.0,2.0;" x1="270.228" x2="416.6172" y1="585.5859" y2="585.5859"/><text fill="#000000" font-family="sans-serif" font-size="13" lengthAdjust="spacing" textLength="127.9053" x="282.228" y="580.7295">ReservationResponse</text><polygon fill="#181818" points="36.8965,611.9375,26.8965,615.9375,36.8965,619.9375,32.8965,615.9375" style="stroke:#181818;stroke-width:1;"/><line style="stroke:#181818;stroke-width:1;stroke-dasharray:2.0,2.0;" x1="30.8965" x2="264.228" y1="615.9375" y2="615.9375"/><text fill="#000000" font-family="sans-serif" font-size="13" lengthAdjust="spacing" textLength="44.0845" x="42.8965" y="611.0811">200 OK</text><!--SRC=[TLBHIiCm57tlLrpsr27IwMD1ONOHgiELPEABBx6vQbXDGfCEXlZlPabNEwHluPwJSy_92Q-TRg5e92gN6DuwMKl3bOCPHOljdZkfLQ6LQtNJO3i3Re4Maqpc3xB6I6EJj0V3AHfjfLz-Y6HwJYxLtZlow5YnP1Ea_tebdLmUy9N-ubATSyXHhUhU6ca_-wYaIfBuE71vwuFdK6tO5Z9kPBQ_oje_LPjzI_6JrLpLs2Iq27oMGnoaKimJoiAGvl0kbRWxbE95ki-rhdT7-5MbZAn9iONx3ONdQhNS4d-7mcMlD8f0b9FkS1BqcDCnK8e1EUsAmy74F8c3GT8wxX1ke5W-5MIz9gl-Nkcn5Xla5faB_Xn-sNbIHdH8m7RT4C7kkeaCVxSit-DWyJZkVGYjSFGydH7U5_FcEflE1dEpKonIvM1YJ-ducuQK3OfGv3mXrR2WqHyVAE023BPMMeSYIFMTZZJyqVWoCJJeuLX-3jUB1MmUVm40]--></g></svg>