<svg xmlns="http://www.w3.org/2000/svg" xmlns:xlink="http://www.w3.org/1999/xlink" contentStyleType="text/css" height="578px" preserveAspectRatio="none" style="width:931px;height:578px;background:#FFFFFF;" version="1.1" viewBox="0 0 931 578" width="931px" zoomAndPan="magnify"><defs/><g><line style="stroke:#181818;stroke-width:0.5;stroke-dasharray:5.0,5.0;" x1="25" x2="25" y1="82.6094" y2="496.1797"/><line style="stroke:#181818;stroke-width:0.5;stroke-dasharray:5.0,5.0;" x1="269.5718" x2="269.5718" y1="82.6094" y2="496.1797"/><line style="stroke:#181818;stroke-width:0.5;stroke-dasharray:5.0,5.0;" x1="421.9644" x2="421.9644" y1="82.6094" y2="496.1797"/><line style="stroke:#181818;stroke-width:0.5;stroke-dasharray:5.0,5.0;" x1="619.7822" x2="619.7822" y1="82.6094" y2="496.1797"/><line style="stroke:#181818;stroke-width:0.5;stroke-dasharray:5.0,5.0;" x1="762.9746" x2="762.9746" y1="82.6094" y2="496.1797"/><line style="stroke:#181818;stroke-width:0.5;stroke-dasharray:5.0,5.0;" x1="871.6777" x2="871.6777" y1="82.6094" y2="496.1797"/><text fill="#000000" font-family="sans-serif" font-size="14" lengthAdjust="spacing" textLength="35.793" x="5" y="79.5332">Client</text><ellipse cx="25.8965" cy="13.5" fill="#E2E2F0" rx="8" ry="8" style="stroke:#181818;stroke-width:0.5;"/><path d="M25.8965,21.5 L25.8965,48.5 M12.8965,29.5 L38.8965,29.5 M25.8965,48.5 L12.8965,63.5 M25.8965,48.5 L38.8965,63.5 " fill="none" style="stroke:#181818;stroke-width:0.5;"/><text fill="#000000" font-family="sans-serif" font-size="14" lengthAdjust="spacing" textLength="35.793" x="5" y="509.7129">Client</text><ellipse cx="25.8965" cy="521.2891" fill="#E2E2F0" rx="8" ry="8" style="stroke:#181818;stroke-width:0.5;"/><path d="M25.8965,529.2891 L25.8965,556.2891 M12.8965,537.2891 L38.8965,537.2891 M25.8965,556.2891 L12.8965,571.2891 M25.8965,556.2891 L38.8965,571.2891 " fill="none" style="stroke:#181818;stroke-width:0.5;"/><rect fill="#E2E2F0" height="31.6094" rx="2.5" ry="2.5" style="stroke:#181818;stroke-width:0.5;" width="149.3926" x="195.5718" y="50"/><text fill="#000000" font-family="sans-serif" font-size="14" lengthAdjust="spacing" textLength="135.3926" x="202.5718" y="71.5332">ReservationController</text><rect fill="#E2E2F0" height="31.6094" rx="2.5" ry="2.5" style="stroke:#181818;stroke-width:0.5;" width="149.3926" x="195.5718" y="495.1797"/><text fill="#000000" font-family="sans-serif" font-size="14" lengthAdjust="spacing" textLength="135.3926" x="202.5718" y="516.7129">ReservationController</text><rect fill="#E2E2F0" height="31.6094" rx="2.5" ry="2.5" style="stroke:#181818;stroke-width:0.5;" width="135.3857" x="354.9644" y="50"/><text fill="#000000" font-family="sans-serif" font-size="14" lengthAdjust="spacing" textLength="121.3857" x="361.9644" y="71.5332">ReservationService</text><rect fill="#E2E2F0" height="31.6094" rx="2.5" ry="2.5" style="stroke:#181818;stroke-width:0.5;" width="135.3857" x="354.9644" y="495.1797"/><text fill="#000000" font-family="sans-serif" font-size="14" lengthAdjust="spacing" textLength="121.3857" x="361.9644" y="516.7129">ReservationService</text><rect fill="#E2E2F0" height="31.6094" rx="2.5" ry="2.5" style="stroke:#181818;stroke-width:0.5;" width="178.1924" x="530.7822" y="50"/><text fill="#000000" font-family="sans-serif" font-size="14" lengthAdjust="spacing" textLength="164.1924" x="537.7822" y="71.5332">ReservationJpaRepository</text><rect fill="#E2E2F0" height="31.6094" rx="2.5" ry="2.5" style="stroke:#181818;stroke-width:0.5;" width="178.1924" x="530.7822" y="495.1797"/><text fill="#000000" font-family="sans-serif" font-size="14" lengthAdjust="spacing" textLength="164.1924" x="537.7822" y="516.7129">ReservationJpaRepository</text><rect fill="#E2E2F0" height="31.6094" rx="2.5" ry="2.5" style="stroke:#181818;stroke-width:0.5;" width="88.7031" x="718.9746" y="50"/><text fill="#000000" font-family="sans-serif" font-size="14" lengthAdjust="spacing" textLength="74.7031" x="725.9746" y="71.5332">Reservation</text><rect fill="#E2E2F0" height="31.6094" rx="2.5" ry="2.5" style="stroke:#181818;stroke-width:0.5;" width="88.7031" x="718.9746" y="495.1797"/><text fill="#000000" font-family="sans-serif" font-size="14" lengthAdjust="spacing" textLength="74.7031" x="725.9746" y="516.7129">Reservation</text><rect fill="#E2E2F0" height="31.6094" rx="2.5" ry="2.5" style="stroke:#181818;stroke-width:0.5;" width="108.165" x="817.6777" y="50"/><text fill="#000000" font-family="sans-serif" font-size="14" lengthAdjust="spacing" textLength="94.165" x="824.6777" y="71.5332">EventPublisher</text><rect fill="#E2E2F0" height="31.6094" rx="2.5" ry="2.5" style="stroke:#181818;stroke-width:0.5;" width="108.165" x="817.6777" y="495.1797"/><text fill="#000000" font-family="sans-serif" font-size="14" lengthAdjust="spacing" textLength="94.165" x="824.6777" y="516.7129">EventPublisher</text><polygon fill="#181818" points="258.2681,110.9609,268.2681,114.9609,258.2681,118.9609,262.2681,114.9609" style="stroke:#181818;stroke-width:1;"/><line style="stroke:#181818;stroke-width:1;" x1="25.8965" x2="264.2681" y1="114.9609" y2="114.9609"/><text fill="#000000" font-family="sans-serif" font-size="13" lengthAdjust="spacing" textLength="220.3716" x="32.8965" y="110.1045">POST /api/v1/reservations/{id}/confirm</text><polygon fill="#181818" points="410.6572,141.3125,420.6572,145.3125,410.6572,149.3125,414.6572,145.3125" style="stroke:#181818;stroke-width:1;"/><line style="stroke:#181818;stroke-width:1;" x1="270.2681" x2="416.6572" y1="145.3125" y2="145.3125"/><text fill="#000000" font-family="sans-serif" font-size="13" lengthAdjust="spacing" textLength="61.3945" x="277.2681" y="140.4561">confirm(id)</text><polygon fill="#181818" points="607.8784,188.0156,617.8784,192.0156,607.8784,196.0156,611.8784,192.0156" style="stroke:#181818;stroke-width:1;"/><line style="stroke:#181818;stroke-width:1;" x1="422.6572" x2="613.8784" y1="192.0156" y2="192.0156"/><text fill="#000000" font-family="sans-serif" font-size="13" lengthAdjust="spacing" textLength="119.209" x="429.6572" y="170.8076">findByIdWithLock(id)</text><text fill="#000000" font-family="sans-serif" font-size="13" lengthAdjust="spacing" textLength="146.6245" x="429.6572" y="187.1592">(SELECT FOR UPDATE)</text><polygon fill="#181818" points="433.6572,218.3672,423.6572,222.3672,433.6572,226.3672,429.6572,222.3672" style="stroke:#181818;stroke-width:1;"/><line style="stroke:#181818;stroke-width:1;stroke-dasharray:2.0,2.0;" x1="427.6572" x2="618.8784" y1="222.3672" y2="222.3672"/><text fill="#000000" font-family="sans-serif" font-size="13" lengthAdjust="spacing" textLength="101.8799" x="439.6572" y="217.5107">ReservationEntity</text><line style="stroke:#181818;stroke-width:1;" x1="422.6572" x2="464.6572" y1="252.7188" y2="252.7188"/><line style="stroke:#181818;stroke-width:1;" x1="464.6572" x2="464.6572" y1="252.7188" y2="265.7188"/><line style="stroke:#181818;stroke-width:1;" x1="423.6572" x2="464.6572" y1="265.7188" y2="265.7188"/><polygon fill="#181818" points="433.6572,261.7188,423.6572,265.7188,433.6572,269.7188,429.6572,265.7188" style="stroke:#181818;stroke-width:1;"/><text fill="#000000" font-family="sans-serif" font-size="13" lengthAdjust="spacing" textLength="95.3672" x="429.6572" y="247.8623">toDomain(entity)</text><polygon fill="#181818" points="751.3262,292.0703,761.3262,296.0703,751.3262,300.0703,755.3262,296.0703" style="stroke:#181818;stroke-width:1;"/><line style="stroke:#181818;stroke-width:1;" x1="422.6572" x2="757.3262" y1="296.0703" y2="296.0703"/><text fill="#000000" font-family="sans-serif" font-size="13" lengthAdjust="spacing" textLength="51.2764" x="429.6572" y="291.2139">confirm()</text><polygon fill="#181818" points="433.6572,322.4219,423.6572,326.4219,433.6572,330.4219,429.6572,326.4219" style="stroke:#181818;stroke-width:1;"/><line style="stroke:#181818;stroke-width:1;stroke-dasharray:2.0,2.0;" x1="427.6572" x2="762.3262" y1="326.4219" y2="326.4219"/><text fill="#000000" font-family="sans-serif" font-size="13" lengthAdjust="spacing" textLength="121.7163" x="439.6572" y="321.5654">state = CONFIRMED</text><polygon fill="#181818" points="607.8784,352.7734,617.8784,356.7734,607.8784,360.7734,611.8784,356.7734" style="stroke:#181818;stroke-width:1;"/><line style="stroke:#181818;stroke-width:1;" x1="422.6572" x2="613.8784" y1="356.7734" y2="356.7734"/><text fill="#000000" font-family="sans-serif" font-size="13" lengthAdjust="spacing" textLength="173.2212" x="429.6572" y="351.917">updateStatus("CONFIRMED")</text><polygon fill="#181818" points="859.7603,383.125,869.7603,387.125,859.7603,391.125,863.7603,387.125" style="stroke:#181818;stroke-width:1;"/><line style="stroke:#181818;stroke-width:1;" x1="422.6572" x2="865.7603" y1="387.125" y2="387.125"/><text fill="#000000" font-family="sans-serif" font-size="13" lengthAdjust="spacing" textLength="212.4307" x="429.6572" y="382.2686">publish(ReservationConfirmedEvent)</text><polygon fill="#181818" points="433.6572,413.4766,423.6572,417.4766,433.6572,421.4766,429.6572,417.4766" style="stroke:#181818;stroke-width:1;"/><line style="stroke:#181818;stroke-width:1;stroke-dasharray:2.0,2.0;" x1="427.6572" x2="870.7603" y1="417.4766" y2="417.4766"/><text fill="#000000" font-family="sans-serif" font-size="13" lengthAdjust="spacing" textLength="106.6025" x="439.6572" y="412.6201">logged + persisted</text><polygon fill="#181818" points="281.2681,443.8281,271.2681,447.8281,281.2681,451.8281,277.2681,447.8281" style="stroke:#181818;stroke-width:1;"/><line style="stroke:#181818;stroke-width:1;stroke-dasharray:2.0,2.0;" x1="275.2681" x2="421.6572" y1="447.8281" y2="447.8281"/><text fill="#000000" font-family="sans-serif" font-size="13" lengthAdjust="spacing" textLength="127.9053" x="287.2681" y="442.9717">ReservationResponse</text><polygon fill="#181818" points="36.8965,474.1797,26.8965,478.1797,36.8965,482.1797,32.8965,478.1797" style="stroke:#181818;stroke-width:1;"/><line style="stroke:#181818;stroke-width:1;stroke-dasharray:2.0,2.0;" x1="30.8965" x2="269.2681" y1="478.1797" y2="478.1797"/><text fill="#000000" font-family="sans-serif" font-size="13" lengthAdjust="spacing" textLength="44.0845" x="42.8965" y="473.3232">200 OK</text><!--SRC=[TL7BQiCm4BpxAnQV74fmsgEXXTPH86rQ6pcXbrvKIqcMEfAGb40e_VSgalCwvBRipCxEphBMAGDbXqAwH3FZi4NDf8EK2YlCZZbKibJI6TLrmgJ0BD3o9hFn1ROYqfgRj5VDgD3Aeb- -ZsHwanpmiTembDSSilEcw-rtXtRTMoDraiHZOFZaZHPGLyqSSgOntztdvgngyr_aVtchv1BD9g5b66WAw3iPya52cz2b1InHyfVzb7-YMyzK-tE0lsJMa1afvp2fA2pgyVES-1aAmrxguWWY7RhzKT1ZJiMJCX6GuwxOFBiO9B5pqhIEEG6FK5OVaobz9-CBarlDFTXunjPcwOcH7iL9NO2EUMNNxpti4Zm4EaX8VThMgTLASBW3BOn5wmGFKdss5ng-r3vK4OBqS7n20G-Z4LHl_m00]--></g></svg>